<svg width="350" height="350" viewBox="0 0 350 350" fill="none" xmlns="http://www.w3.org/2000/svg">
<rect width="350" height="350" fill="#FCFCFC"/>
<path d="M174.269 200.125C170.896 200.125 168.109 199.245 165.909 197.485C163.489 195.542 162.279 192.938 162.279 189.675C162.279 188.685 162.389 187.75 162.609 186.87C163.599 183.423 165.506 180.673 168.329 178.62C171.006 176.677 174.196 175.503 177.899 175.1C176.763 173.963 176.194 172.607 176.194 171.03C176.194 168.61 177.331 166.648 179.604 165.145C181.584 163.825 183.858 163.165 186.424 163.165C190.678 163.165 192.804 164.613 192.804 167.51C192.804 168.683 192.364 169.71 191.484 170.59C190.604 171.47 189.578 171.91 188.404 171.91C187.818 171.91 187.268 171.782 186.754 171.525C186.168 171.195 185.874 170.755 185.874 170.205C185.874 169.985 185.911 169.82 185.984 169.71C185.984 169.49 186.058 169.38 186.204 169.38C186.314 169.38 186.369 169.453 186.369 169.6C186.369 169.71 186.351 169.802 186.314 169.875C186.241 170.095 186.204 170.223 186.204 170.26C186.204 170.957 186.553 171.305 187.249 171.305C188.423 171.305 189.431 170.957 190.274 170.26C191.228 169.527 191.704 168.628 191.704 167.565C191.704 166.355 191.209 165.402 190.219 164.705C189.303 164.082 188.239 163.77 187.029 163.77C184.573 163.77 182.483 164.522 180.759 166.025C178.963 167.565 178.064 169.563 178.064 172.02C178.064 173.193 178.339 174.202 178.889 175.045C179.146 175.008 179.384 174.99 179.604 174.99C179.824 174.99 180.044 174.99 180.264 174.99C184.334 174.99 186.369 175.54 186.369 176.64C186.369 177.41 185.709 177.795 184.389 177.795C182.299 177.795 180.448 177.19 178.834 175.98C171.758 177.263 167.431 180.912 165.854 186.925C165.598 187.805 165.469 188.795 165.469 189.895C165.469 192.755 166.368 195.028 168.164 196.715C169.924 198.438 172.253 199.3 175.149 199.3C178.706 199.3 181.914 198.163 184.774 195.89C187.818 193.47 189.339 190.537 189.339 187.09C189.339 184.047 188.038 182.525 185.434 182.525C184.444 182.525 183.583 182.8 182.849 183.35C182.043 183.937 181.639 184.725 181.639 185.715C181.639 186.338 181.584 186.65 181.474 186.65C181.181 186.65 181.034 186.338 181.034 185.715C181.034 185.568 181.053 185.403 181.089 185.22C181.126 185 181.199 184.762 181.309 184.505C182.043 182.745 183.619 181.865 186.039 181.865C187.689 181.865 189.009 182.378 189.999 183.405C190.916 184.432 191.374 185.807 191.374 187.53C191.374 191.307 189.413 194.442 185.489 196.935C182.006 199.062 178.266 200.125 174.269 200.125ZM183.564 177.245C184.701 177.245 185.269 177.007 185.269 176.53C185.269 175.907 184.444 175.595 182.794 175.595C182.281 175.595 181.749 175.613 181.199 175.65C180.686 175.687 180.173 175.742 179.659 175.815C180.796 176.768 182.098 177.245 183.564 177.245ZM195.815 196.275C194.495 196.275 193.56 195.725 193.01 194.625C192.46 193.525 192.185 192.315 192.185 190.995C192.185 189.638 192.386 188.465 192.79 187.475C193.303 186.118 194.055 184.743 195.045 183.35C196.035 181.92 197.226 180.728 198.62 179.775C200.013 178.785 201.535 178.29 203.185 178.29C205.018 178.29 205.935 179.353 205.935 181.48C205.935 182.543 205.715 183.68 205.275 184.89L214.24 167.29H214.35C214.496 167.437 214.753 167.51 215.12 167.51C215.89 167.51 216.806 167.088 217.87 166.245L217.98 166.355L209.73 182.14C206.54 188.263 204.945 192.278 204.945 194.185C204.945 195.175 205.348 195.67 206.155 195.67C206.595 195.67 207.126 195.505 207.75 195.175C208.373 194.845 209.033 194.295 209.73 193.525C210.61 192.498 211.361 191.527 211.985 190.61C212.645 189.657 213.396 188.373 214.24 186.76C214.35 186.577 214.46 186.485 214.57 186.485C214.79 186.485 214.79 186.668 214.57 187.035C213.91 188.282 213.195 189.528 212.425 190.775C211.691 191.985 210.793 193.122 209.73 194.185C208.41 195.505 207.181 196.165 206.045 196.165C205.128 196.165 204.358 195.908 203.735 195.395C203.148 194.882 202.855 194.002 202.855 192.755C202.855 191.582 203.056 190.28 203.46 188.85C200.893 193.8 198.345 196.275 195.815 196.275ZM196.2 195.78C197.19 195.78 198.363 195.047 199.72 193.58C201.076 192.113 202.488 189.987 203.955 187.2C204.101 186.907 204.285 186.448 204.505 185.825C204.761 185.165 204.981 184.45 205.165 183.68C205.385 182.873 205.495 182.122 205.495 181.425C205.495 180.692 205.348 180.087 205.055 179.61C204.761 179.133 204.248 178.895 203.515 178.895C202.818 178.895 202.066 179.152 201.26 179.665C200.49 180.142 199.683 180.967 198.84 182.14C197.446 184.01 196.438 185.825 195.815 187.585C195.741 187.805 195.613 188.245 195.43 188.905C195.246 189.528 195.081 190.243 194.935 191.05C194.788 191.82 194.715 192.572 194.715 193.305C194.715 194.002 194.825 194.588 195.045 195.065C195.265 195.542 195.65 195.78 196.2 195.78ZM222.758 175.1C221.585 175.1 220.998 174.532 220.998 173.395C220.998 172.148 221.566 171.525 222.703 171.525C223.876 171.525 224.463 172.093 224.463 173.23C224.463 174.477 223.895 175.1 222.758 175.1ZM216.268 196.55C213.848 196.55 212.638 195.212 212.638 192.535C212.638 190.592 213.206 188.538 214.343 186.375L218.468 178.29H218.633C218.743 178.437 218.963 178.51 219.293 178.51C219.99 178.51 220.906 178.088 222.043 177.245L222.153 177.355L217.478 186.43C215.535 190.17 214.563 192.773 214.563 194.24C214.563 194.9 214.746 195.358 215.113 195.615C215.48 195.872 215.901 196 216.378 196C216.891 196 217.386 195.89 217.863 195.67C218.376 195.45 218.816 195.212 219.183 194.955C220.173 194.185 220.998 193.305 221.658 192.315C222.355 191.288 222.96 190.262 223.473 189.235C223.986 188.208 224.445 187.347 224.848 186.65C224.958 186.467 225.068 186.412 225.178 186.485C225.288 186.522 225.306 186.632 225.233 186.815C224.5 188.355 223.693 189.932 222.813 191.545C221.933 193.158 220.815 194.442 219.458 195.395C218.981 195.725 218.468 196 217.918 196.22C217.405 196.44 216.855 196.55 216.268 196.55ZM220.139 197.87L220.084 197.76C221.404 194.9 223.109 190.94 225.199 185.88C225.529 185.037 225.914 183.992 226.354 182.745C226.831 181.498 227.363 180.05 227.949 178.4H228.059C228.426 178.693 228.738 178.84 228.994 178.84C229.911 178.84 230.773 178.052 231.579 176.475V176.53C231.579 176.603 230.773 178.565 229.159 182.415C228.279 184.505 227.619 186.1 227.179 187.2C226.739 188.3 226.483 188.923 226.409 189.07C230.589 181.553 233.926 177.795 236.419 177.795C236.969 177.795 237.464 177.978 237.904 178.345C238.344 178.712 238.564 179.188 238.564 179.775C238.564 181.315 237.519 183.845 235.429 187.365C233.339 190.885 232.294 193.287 232.294 194.57C232.294 195.047 232.478 195.413 232.844 195.67C233.211 195.927 233.651 196.055 234.164 196.055C234.678 196.055 235.209 195.945 235.759 195.725C236.309 195.505 236.768 195.267 237.134 195.01C238.124 194.24 238.968 193.342 239.664 192.315C240.361 191.288 240.966 190.262 241.479 189.235C241.993 188.208 242.451 187.347 242.854 186.65C242.964 186.467 243.074 186.412 243.184 186.485C243.294 186.522 243.313 186.632 243.239 186.815C242.506 188.355 241.699 189.932 240.819 191.545C239.939 193.158 238.821 194.442 237.464 195.395C236.988 195.725 236.456 196 235.869 196.22C235.319 196.44 234.733 196.55 234.109 196.55C233.083 196.55 232.239 196.275 231.579 195.725C230.956 195.175 230.644 194.332 230.644 193.195C230.644 191.215 231.561 188.722 233.394 185.715C235.264 182.635 236.199 180.692 236.199 179.885C236.199 179.262 235.851 178.95 235.154 178.95H234.824C234.018 178.95 232.918 179.885 231.524 181.755C230.131 183.588 228.444 186.302 226.464 189.895C225.988 190.702 225.493 191.637 224.979 192.7C224.503 193.727 223.989 194.882 223.439 196.165L223.329 196.22C222.889 196 222.504 195.89 222.174 195.89C221.698 195.89 221.294 196.183 220.964 196.77C220.671 197.393 220.396 197.76 220.139 197.87ZM246.054 196.66C242.35 196.66 240.499 194.9 240.499 191.38C240.499 190.39 240.664 189.327 240.994 188.19V188.245C241.177 187.585 241.525 186.943 242.039 186.32C242.662 185.55 243.23 185.165 243.744 185.165C243.744 185.165 243.799 185.165 243.909 185.165C244.019 185.165 244.202 185.202 244.459 185.275L245.064 184.34C245.577 183.57 246.035 182.8 246.439 182.03C246.879 181.223 247.337 180.435 247.814 179.665C249.17 177.318 250.197 176.053 250.894 175.87C251.114 175.797 251.279 175.76 251.389 175.76C251.939 175.76 252.214 175.962 252.214 176.365C252.214 176.842 251.81 177.135 251.004 177.245C250.27 177.355 249.812 177.447 249.629 177.52C249.335 177.74 249.189 178.217 249.189 178.95C249.189 179.72 249.684 181.022 250.674 182.855C251.664 184.652 252.159 186.247 252.159 187.64C252.159 188.007 252.122 188.355 252.049 188.685C252.012 189.015 251.957 189.363 251.884 189.73C250.894 193.873 248.272 195.945 244.019 195.945C244.862 196.128 245.632 196.22 246.329 196.22C247.612 196.22 248.859 196 250.069 195.56C251.279 195.083 252.397 194.442 253.424 193.635C254.487 192.792 255.459 191.783 256.339 190.61C257.255 189.4 258.044 188.117 258.704 186.76C258.814 186.54 258.924 186.43 259.034 186.43C259.254 186.43 259.272 186.613 259.089 186.98C258.502 188.08 257.879 189.125 257.219 190.115C256.595 191.068 255.917 191.93 255.184 192.7C254.304 193.58 253.112 194.46 251.609 195.34C250.105 196.22 248.254 196.66 246.054 196.66ZM243.634 195.505C245.504 195.505 247.044 194.093 248.254 191.27C249.244 189.07 249.739 186.852 249.739 184.615C249.739 184.322 249.684 183.937 249.574 183.46C249.5 182.947 249.372 182.342 249.189 181.645C249.042 180.985 248.932 180.417 248.859 179.94C248.785 179.427 248.767 178.987 248.804 178.62C248.107 180.013 247.41 181.278 246.714 182.415C246.017 183.552 245.357 184.578 244.734 185.495C244.917 185.788 245.009 186.082 245.009 186.375C245.009 186.888 244.807 187.457 244.404 188.08C244.147 188.447 243.707 188.795 243.084 189.125C242.46 189.455 242.02 189.767 241.764 190.06C241.36 190.647 241.159 191.417 241.159 192.37C241.159 194.46 241.984 195.505 243.634 195.505ZM261.708 196.495C260.095 196.495 258.866 195.798 258.023 194.405C257.253 193.232 256.868 191.802 256.868 190.115C256.868 187.218 257.785 184.523 259.618 182.03C261.635 179.317 264.055 177.96 266.878 177.96C268.308 177.96 269.408 178.455 270.178 179.445C270.911 180.398 271.278 181.608 271.278 183.075C271.278 183.735 271.205 184.413 271.058 185.11C270.948 185.807 270.765 186.54 270.508 187.31C269.958 188.923 269.28 190.188 268.473 191.105L268.583 191.27C268.95 191.527 269.39 191.655 269.903 191.655C270.966 191.655 271.865 191.307 272.598 190.61C273.331 189.913 274.156 188.667 275.073 186.87C275.11 186.723 275.183 186.65 275.293 186.65C275.366 186.65 275.421 186.705 275.458 186.815C275.495 186.888 275.476 186.998 275.403 187.145C274.633 188.758 273.808 189.987 272.928 190.83C272.085 191.673 271.095 192.095 269.958 192.095C269.225 192.095 268.656 191.893 268.253 191.49C267.886 192.15 267.483 192.773 267.043 193.36C266.603 193.91 266.108 194.405 265.558 194.845C264.311 195.945 263.028 196.495 261.708 196.495ZM262.093 196.055C264.036 196.055 265.943 194.57 267.813 191.6C267.813 191.49 267.868 191.38 267.978 191.27C267.318 190.17 266.988 189.125 266.988 188.135C266.988 188.098 266.988 188.025 266.988 187.915C266.988 187.768 267.006 187.585 267.043 187.365C267.08 186.962 267.153 186.558 267.263 186.155C267.373 185.715 267.556 185.312 267.813 184.945C268.363 184.065 269.023 183.625 269.793 183.625H270.288C270.435 183.662 270.545 183.68 270.618 183.68C270.691 183.68 270.746 183.68 270.783 183.68C270.783 180.38 269.738 178.73 267.648 178.73C265.888 178.73 264.22 179.793 262.643 181.92C261.36 183.607 260.443 185.495 259.893 187.585C259.563 188.722 259.398 189.913 259.398 191.16C259.398 194.423 260.296 196.055 262.093 196.055ZM270.466 197.87L270.411 197.76C271.731 194.9 273.436 190.94 275.526 185.88C275.856 185.037 276.241 183.992 276.681 182.745C277.158 181.498 277.69 180.05 278.276 178.4H278.386C278.753 178.693 279.065 178.84 279.321 178.84C280.238 178.84 281.1 178.052 281.906 176.475V176.53C281.906 176.603 281.1 178.565 279.486 182.415C278.606 184.505 277.946 186.1 277.506 187.2C277.066 188.3 276.81 188.923 276.736 189.07C280.916 181.553 284.253 177.795 286.746 177.795C287.296 177.795 287.791 177.978 288.231 178.345C288.671 178.712 288.891 179.188 288.891 179.775C288.891 181.315 287.846 183.845 285.756 187.365C283.666 190.885 282.621 193.287 282.621 194.57C282.621 195.047 282.805 195.413 283.171 195.67C283.538 195.927 283.978 196.055 284.491 196.055C285.005 196.055 285.536 195.945 286.086 195.725C286.636 195.505 287.095 195.267 287.461 195.01C288.451 194.24 289.295 193.342 289.991 192.315C290.688 191.288 291.293 190.262 291.806 189.235C292.32 188.208 292.778 187.347 293.181 186.65C293.291 186.467 293.401 186.412 293.511 186.485C293.621 186.522 293.64 186.632 293.566 186.815C292.833 188.355 292.026 189.932 291.146 191.545C290.266 193.158 289.148 194.442 287.791 195.395C287.315 195.725 286.783 196 286.196 196.22C285.646 196.44 285.06 196.55 284.436 196.55C283.41 196.55 282.566 196.275 281.906 195.725C281.283 195.175 280.971 194.332 280.971 193.195C280.971 191.215 281.888 188.722 283.721 185.715C285.591 182.635 286.526 180.692 286.526 179.885C286.526 179.262 286.178 178.95 285.481 178.95H285.151C284.345 178.95 283.245 179.885 281.851 181.755C280.458 183.588 278.771 186.302 276.791 189.895C276.315 190.702 275.82 191.637 275.306 192.7C274.83 193.727 274.316 194.882 273.766 196.165L273.656 196.22C273.216 196 272.831 195.89 272.501 195.89C272.025 195.89 271.621 196.183 271.291 196.77C270.998 197.393 270.723 197.76 270.466 197.87Z" fill="#231F20"/>
<path d="M162.718 168.55C159.651 168.55 157.118 167.75 155.118 166.15C152.918 164.383 151.818 162.017 151.818 159.05C151.818 158.083 151.935 157.233 152.168 156.5C153.035 153.4 154.751 150.9 157.318 149C159.751 147.233 162.651 146.167 166.018 145.8C164.985 144.7 164.468 143.483 164.468 142.15C164.468 139.917 165.501 138.117 167.568 136.75C169.368 135.55 171.435 134.95 173.768 134.95C177.635 134.95 179.568 136.283 179.568 138.95C179.568 139.983 179.168 140.9 178.368 141.7C177.568 142.5 176.651 142.9 175.618 142.9C175.051 142.9 174.551 142.783 174.118 142.55C173.551 142.25 173.268 141.85 173.268 141.35C173.268 141.25 173.301 141.1 173.368 140.9C173.368 140.7 173.435 140.6 173.568 140.6C173.668 140.6 173.718 140.667 173.718 140.8C173.718 140.9 173.701 141 173.668 141.1C173.601 141.233 173.568 141.333 173.568 141.4C173.568 142.033 173.901 142.35 174.568 142.35C175.568 142.35 176.468 142.05 177.268 141.45C178.135 140.783 178.568 139.95 178.568 138.95C178.568 137.85 178.118 136.983 177.218 136.35C176.451 135.783 175.485 135.5 174.318 135.5C172.085 135.5 170.185 136.183 168.618 137.55C166.985 138.983 166.168 140.8 166.168 143C166.168 144.1 166.435 145.017 166.968 145.75C167.168 145.75 167.368 145.75 167.568 145.75C167.768 145.717 167.968 145.7 168.168 145.7C171.868 145.7 173.718 146.217 173.718 147.25C173.718 147.917 173.118 148.25 171.918 148.25C170.051 148.25 168.368 147.7 166.868 146.6C160.435 147.767 156.501 151.083 155.068 156.55C154.835 157.35 154.718 158.25 154.718 159.25C154.718 161.783 155.535 163.867 157.168 165.5C158.801 167.033 160.918 167.8 163.518 167.8C166.651 167.8 169.535 166.8 172.168 164.8C175.001 162.6 176.418 159.983 176.418 156.95C176.418 154.017 174.701 152.55 171.268 152.55C170.235 152.55 169.201 152.667 168.168 152.9C167.168 153.133 166.151 153.5 165.118 154C164.518 154.267 163.968 154.6 163.468 155C162.968 155.367 162.501 155.783 162.068 156.25C161.101 157.417 160.618 158.567 160.618 159.7C160.618 160.7 160.951 161.533 161.618 162.2C162.285 162.867 163.118 163.2 164.118 163.2C165.218 163.2 166.185 162.95 167.018 162.45C168.018 161.883 168.518 161.1 168.518 160.1C168.518 159.8 168.618 159.65 168.818 159.65C169.085 159.65 169.218 159.9 169.218 160.4C169.218 161.5 168.635 162.4 167.468 163.1C166.535 163.667 165.451 163.95 164.218 163.95C162.718 163.95 161.501 163.383 160.568 162.25C159.668 161.15 159.218 159.867 159.218 158.4C159.218 155.467 160.585 153.35 163.318 152.05C164.818 151.35 167.051 151 170.018 151C171.751 151 174.318 151.15 177.718 151.45C181.118 151.75 183.668 151.9 185.368 151.9C190.668 151.9 193.318 150.733 193.318 148.4C193.318 147.1 192.601 146.333 191.168 146.1C190.868 146.033 190.718 145.883 190.718 145.65C190.718 145.35 190.868 145.2 191.168 145.2C191.935 145.2 192.651 145.533 193.318 146.2C193.885 146.867 194.168 147.6 194.168 148.4C194.168 148.467 194.168 148.55 194.168 148.65C194.168 148.75 194.151 148.833 194.118 148.9C193.585 151.5 190.685 152.8 185.418 152.8C184.285 152.8 182.685 152.75 180.618 152.65C179.485 152.583 178.518 152.533 177.718 152.5C176.918 152.467 176.268 152.45 175.768 152.45C177.468 153.25 178.318 154.8 178.318 157.1C178.318 160.533 176.518 163.383 172.918 165.65C169.751 167.583 166.351 168.55 162.718 168.55ZM171.168 147.75C172.201 147.75 172.718 147.533 172.718 147.1C172.718 146.533 171.968 146.25 170.468 146.25C170.001 146.25 169.518 146.267 169.018 146.3C168.551 146.333 168.085 146.383 167.618 146.45C168.651 147.317 169.835 147.75 171.168 147.75Z" fill="#231F20"/>
<path d="M99.8693 136.575C96.1659 136.575 92.4259 135.493 88.6493 133.33C86.3393 134.393 84.1393 134.925 82.0493 134.925C80.0326 134.925 78.0526 134.485 76.1093 133.605C73.7626 132.468 72.5893 131.002 72.5893 129.205C72.5893 127.958 73.0843 126.95 74.0743 126.18C74.9909 125.483 76.0909 125.135 77.3743 125.135C80.4543 125.135 83.3143 126.327 85.9543 128.71C86.6143 129.333 87.2009 129.865 87.7143 130.305C88.2276 130.745 88.6676 131.112 89.0343 131.405C90.7943 129.975 92.5176 127.848 94.2043 125.025C94.9009 123.815 95.5793 122.605 96.2393 121.395C96.8993 120.185 97.5593 118.975 98.2193 117.765C94.9926 117.545 92.1509 116.757 89.6943 115.4C86.5409 113.677 84.9643 111.403 84.9643 108.58C84.9643 106.38 85.7343 104.51 87.2743 102.97C88.8143 101.43 90.6843 100.66 92.8843 100.66C94.2776 100.66 95.4876 101.008 96.5143 101.705C97.6509 102.548 98.2193 103.63 98.2193 104.95C98.2193 105.463 98.0543 105.72 97.7243 105.72C97.5776 105.72 97.5043 105.427 97.5043 104.84C97.5043 104.767 97.4859 104.657 97.4493 104.51C97.4126 104.363 97.3576 104.18 97.2843 103.96C96.6243 102.09 95.1759 101.155 92.9393 101.155C91.1059 101.155 89.5109 101.943 88.1543 103.52C86.8343 105.06 86.1743 106.747 86.1743 108.58C86.1743 111.22 87.6409 113.347 90.5743 114.96C92.8843 116.243 95.5426 116.977 98.5493 117.16C99.7226 115.107 100.914 113.237 102.124 111.55C103.371 109.827 104.618 108.268 105.864 106.875C109.604 102.768 112.996 100.715 116.039 100.715C117.103 100.715 118.001 100.953 118.734 101.43C119.578 101.98 119.999 102.75 119.999 103.74C119.999 105.17 119.156 106.93 117.469 109.02C116.846 109.79 116.168 110.523 115.434 111.22C114.701 111.917 113.913 112.577 113.069 113.2C112.373 113.75 111.639 114.245 110.869 114.685C110.136 115.125 109.366 115.547 108.559 115.95C106.799 116.793 104.801 117.343 102.564 117.6C101.024 121.12 99.4109 123.943 97.7243 126.07C95.7076 128.637 93.2509 130.745 90.3543 132.395C93.7643 134.815 97.0459 136.025 100.199 136.025C101.886 136.025 103.353 135.695 104.599 135.035C106.139 134.192 106.909 133 106.909 131.46C106.909 131.24 106.983 131.13 107.129 131.13C107.276 131.13 107.349 131.258 107.349 131.515V131.68C107.349 133.293 106.671 134.503 105.314 135.31C103.994 136.153 102.179 136.575 99.8693 136.575ZM102.894 116.885C103.811 116.738 104.709 116.555 105.589 116.335C106.469 116.115 107.331 115.84 108.174 115.51C108.908 115.217 109.623 114.868 110.319 114.465C111.016 114.062 111.713 113.603 112.409 113.09C113.986 111.917 115.416 110.523 116.699 108.91C118.386 106.893 119.229 105.17 119.229 103.74C119.229 102.567 118.624 101.98 117.414 101.98C116.424 101.98 115.251 102.328 113.894 103.025C111.731 104.162 109.788 105.775 108.064 107.865C106.341 109.955 104.819 112.503 103.499 115.51L102.894 116.885ZM81.4993 134.21C83.6993 134.21 85.6793 133.678 87.4393 132.615C86.4859 131.992 85.5326 131.368 84.5793 130.745C83.6259 130.122 82.6726 129.517 81.7193 128.93C79.0059 127.243 77.0076 126.4 75.7243 126.4C74.0743 126.4 73.2493 127.152 73.2493 128.655C73.2493 130.122 74.0559 131.405 75.6693 132.505C77.0259 133.422 78.4926 133.972 80.0693 134.155C80.3259 134.192 80.5643 134.21 80.7843 134.21C81.0409 134.21 81.2793 134.21 81.4993 134.21ZM111.983 133.33C111.066 133.33 110.333 133.018 109.783 132.395C109.269 131.772 109.013 131.02 109.013 130.14C109.013 129.333 109.251 128.27 109.728 126.95C110.241 125.63 110.956 124.053 111.873 122.22C112.276 121.413 112.789 120.442 113.413 119.305C114.073 118.132 114.861 116.793 115.778 115.29H115.888C116.144 115.473 116.438 115.565 116.768 115.565C117.538 115.565 118.418 115.18 119.408 114.41L119.518 114.52C118.968 115.143 118.014 116.665 116.658 119.085C116.218 119.855 115.796 120.57 115.393 121.23C115.026 121.89 114.659 122.513 114.293 123.1C112.129 126.803 111.048 129.517 111.048 131.24C111.048 132.23 111.506 132.725 112.423 132.725C114.476 132.725 117.318 129.517 120.948 123.1C121.461 122.183 122.066 121.047 122.763 119.69C123.459 118.333 124.266 116.757 125.183 114.96H125.293C125.549 115.07 125.788 115.162 126.008 115.235C126.228 115.308 126.448 115.345 126.668 115.345C127.474 115.345 128.043 114.978 128.373 114.245L128.538 114.3L124.248 122.605C121.718 127.445 120.453 130.507 120.453 131.79C120.453 132.45 120.764 132.78 121.388 132.78C121.828 132.78 122.359 132.597 122.983 132.23C123.643 131.863 124.321 131.295 125.018 130.525C125.898 129.498 126.649 128.527 127.273 127.61C127.933 126.657 128.684 125.373 129.528 123.76C129.638 123.577 129.748 123.485 129.858 123.485C130.078 123.485 130.078 123.668 129.858 124.035C129.198 125.282 128.483 126.528 127.713 127.775C126.979 128.985 126.081 130.122 125.018 131.185C123.624 132.578 122.396 133.275 121.333 133.275C120.379 133.275 119.646 133.037 119.133 132.56C118.656 132.083 118.418 131.313 118.418 130.25C118.418 129.37 118.601 128.398 118.968 127.335C116.511 131.332 114.183 133.33 111.983 133.33ZM138.049 112.1C136.876 112.1 136.289 111.532 136.289 110.395C136.289 109.148 136.857 108.525 137.994 108.525C139.167 108.525 139.754 109.093 139.754 110.23C139.754 111.477 139.186 112.1 138.049 112.1ZM131.559 133.55C129.139 133.55 127.929 132.212 127.929 129.535C127.929 127.592 128.497 125.538 129.634 123.375L133.759 115.29H133.924C134.034 115.437 134.254 115.51 134.584 115.51C135.281 115.51 136.197 115.088 137.334 114.245L137.444 114.355L132.769 123.43C130.826 127.17 129.854 129.773 129.854 131.24C129.854 131.9 130.037 132.358 130.404 132.615C130.771 132.872 131.192 133 131.669 133C132.182 133 132.677 132.89 133.154 132.67C133.667 132.45 134.107 132.212 134.474 131.955C135.464 131.185 136.289 130.305 136.949 129.315C137.646 128.288 138.251 127.262 138.764 126.235C139.277 125.208 139.736 124.347 140.139 123.65C140.249 123.467 140.359 123.412 140.469 123.485C140.579 123.522 140.597 123.632 140.524 123.815C139.791 125.355 138.984 126.932 138.104 128.545C137.224 130.158 136.106 131.442 134.749 132.395C134.272 132.725 133.759 133 133.209 133.22C132.696 133.44 132.146 133.55 131.559 133.55ZM143.405 133.66C139.702 133.66 137.85 131.9 137.85 128.38C137.85 127.39 138.015 126.327 138.345 125.19V125.245C138.529 124.585 138.877 123.943 139.39 123.32C140.014 122.55 140.582 122.165 141.095 122.165C141.095 122.165 141.15 122.165 141.26 122.165C141.37 122.165 141.554 122.202 141.81 122.275L142.415 121.34C142.929 120.57 143.387 119.8 143.79 119.03C144.23 118.223 144.689 117.435 145.165 116.665C146.522 114.318 147.549 113.053 148.245 112.87C148.465 112.797 148.63 112.76 148.74 112.76C149.29 112.76 149.565 112.962 149.565 113.365C149.565 113.842 149.162 114.135 148.355 114.245C147.622 114.355 147.164 114.447 146.98 114.52C146.687 114.74 146.54 115.217 146.54 115.95C146.54 116.72 147.035 118.022 148.025 119.855C149.015 121.652 149.51 123.247 149.51 124.64C149.51 125.007 149.474 125.355 149.4 125.685C149.364 126.015 149.309 126.363 149.235 126.73C148.245 130.873 145.624 132.945 141.37 132.945C142.214 133.128 142.984 133.22 143.68 133.22C144.964 133.22 146.21 133 147.42 132.56C148.63 132.083 149.749 131.442 150.775 130.635C151.839 129.792 152.81 128.783 153.69 127.61C154.607 126.4 155.395 125.117 156.055 123.76C156.165 123.54 156.275 123.43 156.385 123.43C156.605 123.43 156.624 123.613 156.44 123.98C155.854 125.08 155.23 126.125 154.57 127.115C153.947 128.068 153.269 128.93 152.535 129.7C151.655 130.58 150.464 131.46 148.96 132.34C147.457 133.22 145.605 133.66 143.405 133.66ZM140.985 132.505C142.855 132.505 144.395 131.093 145.605 128.27C146.595 126.07 147.09 123.852 147.09 121.615C147.09 121.322 147.035 120.937 146.925 120.46C146.852 119.947 146.724 119.342 146.54 118.645C146.394 117.985 146.284 117.417 146.21 116.94C146.137 116.427 146.119 115.987 146.155 115.62C145.459 117.013 144.762 118.278 144.065 119.415C143.369 120.552 142.709 121.578 142.085 122.495C142.269 122.788 142.36 123.082 142.36 123.375C142.36 123.888 142.159 124.457 141.755 125.08C141.499 125.447 141.059 125.795 140.435 126.125C139.812 126.455 139.372 126.767 139.115 127.06C138.712 127.647 138.51 128.417 138.51 129.37C138.51 131.46 139.335 132.505 140.985 132.505ZM167.31 133.165C165.403 133.165 164.45 131.845 164.45 129.205C164.45 128.178 164.615 127.005 164.945 125.685C162.378 130.635 159.83 133.11 157.3 133.11C156.09 133.11 155.173 132.505 154.55 131.295C154.036 130.378 153.78 129.223 153.78 127.83C153.78 126.693 153.945 125.502 154.275 124.255C154.898 122.092 156.218 120.057 158.235 118.15C160.471 116.097 162.598 115.07 164.615 115.07C166.448 115.07 167.365 116.17 167.365 118.37C167.365 119.323 167.163 120.442 166.76 121.725L170.115 115.125H170.28C170.39 115.308 170.628 115.4 170.995 115.4C171.728 115.4 172.663 114.96 173.8 114.08L173.91 114.19L169.235 123.32C167.365 126.95 166.43 129.7 166.43 131.57C166.43 132.303 166.76 132.67 167.42 132.67C167.86 132.67 168.391 132.505 169.015 132.175C169.638 131.845 170.298 131.295 170.995 130.525C171.875 129.498 172.626 128.527 173.25 127.61C173.91 126.657 174.661 125.373 175.505 123.76C175.615 123.577 175.725 123.485 175.835 123.485C176.055 123.485 176.055 123.668 175.835 124.035C175.175 125.282 174.46 126.528 173.69 127.775C172.956 128.985 172.058 130.122 170.995 131.185C169.675 132.505 168.446 133.165 167.31 133.165ZM157.52 132.725C159.573 132.725 162.213 129.828 165.44 124.035C166.466 122.202 166.98 120.35 166.98 118.48C166.98 116.5 166.338 115.51 165.055 115.51C163.661 115.51 162.085 116.665 160.325 118.975C159.628 119.928 159.023 120.863 158.51 121.78C158.033 122.697 157.648 123.577 157.355 124.42C156.585 126.62 156.2 128.6 156.2 130.36C156.2 131.937 156.64 132.725 157.52 132.725Z" fill="#231F20"/>
<path d="M101.943 285H97.1582V284.492H98.7207V273.789H97.1582V273.281H101.943V273.789H100.4V278.672H106.396V273.789H104.834V273.281H109.619V273.789H108.076V284.492H109.111C109.176 284.492 109.242 284.499 109.307 284.512C109.515 284.551 109.619 284.714 109.619 285H104.834V284.492H106.396V279.238H100.4V284.492H101.436C101.501 284.492 101.566 284.499 101.631 284.512C101.839 284.551 101.943 284.714 101.943 285ZM118.037 285.195C117.126 285.182 116.592 284.596 116.436 283.438C116.318 283.711 116.143 283.971 115.908 284.219C115.257 284.87 114.456 285.195 113.506 285.195C113.115 285.195 112.744 285.124 112.393 284.98C111.52 284.616 111.084 283.939 111.084 282.949C111.084 282.663 111.123 282.396 111.201 282.148C111.644 280.872 113.395 280.234 116.455 280.234V279.004C116.416 277.741 115.785 277.07 114.561 276.992C114.04 276.992 113.656 277.155 113.408 277.48C113.343 277.572 113.219 277.858 113.037 278.34C112.894 278.717 112.673 278.906 112.373 278.906C112.308 278.906 112.243 278.9 112.178 278.887C111.8 278.822 111.611 278.587 111.611 278.184C111.611 277.962 111.689 277.741 111.846 277.52C112.34 276.842 113.317 276.504 114.775 276.504C114.893 276.504 115.01 276.504 115.127 276.504C116.989 276.608 117.92 277.591 117.92 279.453V283.574C117.933 284.225 118.109 284.564 118.447 284.59C118.864 284.577 119.118 284.095 119.209 283.145L119.717 283.164C119.717 283.229 119.71 283.301 119.697 283.379C119.593 284.59 119.04 285.195 118.037 285.195ZM114.15 284.414C114.437 284.414 114.73 284.349 115.029 284.219C115.785 283.854 116.26 283.223 116.455 282.324V280.762C115.439 280.775 114.665 280.84 114.131 280.957C113.128 281.191 112.627 281.745 112.627 282.617C112.627 282.839 112.646 283.04 112.686 283.223C112.868 284.017 113.356 284.414 114.15 284.414ZM120.596 280.938C120.596 280.078 120.758 279.31 121.084 278.633C121.774 277.214 122.992 276.504 124.736 276.504C125.439 276.504 126.09 276.654 126.689 276.953C127.536 277.383 127.959 277.93 127.959 278.594C127.959 278.672 127.946 278.757 127.92 278.848C127.803 279.238 127.523 279.421 127.08 279.395C126.924 279.382 126.781 279.342 126.65 279.277C126.442 279.147 126.299 278.822 126.221 278.301C126.182 278.079 126.149 277.917 126.123 277.812C125.98 277.266 125.557 276.992 124.854 276.992C124.398 276.992 123.981 277.109 123.604 277.344C122.705 277.917 122.256 279.056 122.256 280.762C122.256 281.725 122.451 282.559 122.842 283.262C123.363 284.186 124.085 284.648 125.01 284.648C125.114 284.648 125.218 284.642 125.322 284.629C126.429 284.525 127.223 283.958 127.705 282.93L128.213 283.105C128.122 283.327 127.998 283.548 127.842 283.77C127.152 284.72 126.13 285.195 124.775 285.195C123.864 285.195 123.05 284.954 122.334 284.473C121.175 283.691 120.596 282.513 120.596 280.938ZM132.9 284.512C132.965 284.512 133.031 284.518 133.096 284.531C133.291 284.557 133.389 284.714 133.389 285H128.896V284.512C129.339 284.512 129.658 284.486 129.854 284.434C130.257 284.303 130.459 283.939 130.459 283.34V277.188H128.896V276.699H131.924V284.512H132.9ZM132.158 273.848C132.158 274.004 132.126 274.154 132.061 274.297C131.878 274.714 131.559 274.922 131.104 274.922C130.96 274.922 130.817 274.896 130.674 274.844C130.244 274.661 130.029 274.329 130.029 273.848C130.029 273.691 130.062 273.542 130.127 273.398C130.322 272.982 130.648 272.773 131.104 272.773C131.247 272.773 131.396 272.806 131.553 272.871C131.956 273.066 132.158 273.392 132.158 273.848ZM138.838 276.992C138.499 276.992 138.18 277.07 137.881 277.227C136.969 277.682 136.481 278.659 136.416 280.156L138.486 280.215C139.085 280.228 139.548 280.202 139.873 280.137C140.498 279.993 140.811 279.596 140.811 278.945C140.811 278.659 140.758 278.392 140.654 278.145C140.355 277.376 139.749 276.992 138.838 276.992ZM142.236 283.125C142.158 283.307 142.067 283.49 141.963 283.672C141.299 284.688 140.264 285.195 138.857 285.195C137.972 285.195 137.184 284.967 136.494 284.512C135.335 283.73 134.756 282.533 134.756 280.918C134.756 280.033 134.938 279.238 135.303 278.535C136.006 277.181 137.171 276.504 138.799 276.504C139.632 276.504 140.368 276.693 141.006 277.07C141.904 277.591 142.354 278.294 142.354 279.18C142.354 279.661 142.178 280.033 141.826 280.293C141.37 280.618 140.348 280.768 138.76 280.742L136.416 280.703C136.429 281.25 136.488 281.751 136.592 282.207C136.943 283.835 137.803 284.648 139.17 284.648C139.287 284.648 139.411 284.642 139.541 284.629C140.557 284.499 141.292 283.939 141.748 282.949L142.236 283.125ZM147.432 284.512C147.51 284.512 147.575 284.518 147.627 284.531C147.822 284.557 147.92 284.714 147.92 285H143.623V284.512C144.066 284.512 144.385 284.479 144.58 284.414C144.919 284.297 145.088 283.939 145.088 283.34V277.188H143.623V276.699H146.455L146.533 278.652C146.676 278.288 146.865 277.956 147.1 277.656C147.725 276.888 148.519 276.504 149.482 276.504C149.964 276.504 150.413 276.628 150.83 276.875C151.729 277.435 152.178 278.366 152.178 279.668V284.512H153.154C153.232 284.512 153.298 284.518 153.35 284.531C153.545 284.557 153.643 284.714 153.643 285H149.248V284.512C149.691 284.512 150.01 284.479 150.205 284.414C150.544 284.297 150.713 283.939 150.713 283.34V279.473C150.713 279.095 150.654 278.757 150.537 278.457C150.251 277.715 149.71 277.344 148.916 277.344C148.551 277.344 148.193 277.454 147.842 277.676C147.021 278.21 146.592 279.082 146.553 280.293V284.512H147.432ZM161.572 285L161.416 282.93C160.778 284.414 159.749 285.169 158.33 285.195C157.64 285.195 157.008 284.993 156.436 284.59C155.42 283.848 154.912 282.669 154.912 281.055C154.912 280.078 155.133 279.199 155.576 278.418C156.305 277.142 157.386 276.504 158.818 276.504C159.899 276.504 160.758 276.855 161.396 277.559V272.793H159.541V272.305H162.861L162.9 284.512H163.877C163.955 284.512 164.02 284.518 164.072 284.531C164.268 284.557 164.365 284.714 164.365 285H161.572ZM156.572 280.82C156.572 281.432 156.637 281.979 156.768 282.461C157.093 283.763 157.79 284.414 158.857 284.414C159.391 284.414 159.867 284.225 160.283 283.848C161.064 283.145 161.455 282.012 161.455 280.449C161.455 279.707 161.344 279.062 161.123 278.516C160.719 277.5 160.042 276.992 159.092 276.992C158.714 276.992 158.369 277.077 158.057 277.246C157.067 277.793 156.572 278.984 156.572 280.82ZM172.471 285.195C171.559 285.182 171.025 284.596 170.869 283.438C170.752 283.711 170.576 283.971 170.342 284.219C169.691 284.87 168.89 285.195 167.939 285.195C167.549 285.195 167.178 285.124 166.826 284.98C165.954 284.616 165.518 283.939 165.518 282.949C165.518 282.663 165.557 282.396 165.635 282.148C166.077 280.872 167.829 280.234 170.889 280.234V279.004C170.85 277.741 170.218 277.07 168.994 276.992C168.473 276.992 168.089 277.155 167.842 277.48C167.777 277.572 167.653 277.858 167.471 278.34C167.327 278.717 167.106 278.906 166.807 278.906C166.742 278.906 166.676 278.9 166.611 278.887C166.234 278.822 166.045 278.587 166.045 278.184C166.045 277.962 166.123 277.741 166.279 277.52C166.774 276.842 167.751 276.504 169.209 276.504C169.326 276.504 169.443 276.504 169.561 276.504C171.423 276.608 172.354 277.591 172.354 279.453V283.574C172.367 284.225 172.542 284.564 172.881 284.59C173.298 284.577 173.551 284.095 173.643 283.145L174.15 283.164C174.15 283.229 174.144 283.301 174.131 283.379C174.027 284.59 173.473 285.195 172.471 285.195ZM168.584 284.414C168.87 284.414 169.163 284.349 169.463 284.219C170.218 283.854 170.693 283.223 170.889 282.324V280.762C169.873 280.775 169.098 280.84 168.564 280.957C167.562 281.191 167.061 281.745 167.061 282.617C167.061 282.839 167.08 283.04 167.119 283.223C167.301 284.017 167.79 284.414 168.584 284.414ZM187.393 285H178.838V284.492H180.4V273.789H178.838V273.281H183.721V273.789H182.08V284.492H184.756C184.899 284.492 185.049 284.479 185.205 284.453C185.934 284.284 186.455 283.6 186.768 282.402L187.1 281.094H187.49L187.393 285ZM195.322 285.195C194.411 285.182 193.877 284.596 193.721 283.438C193.604 283.711 193.428 283.971 193.193 284.219C192.542 284.87 191.742 285.195 190.791 285.195C190.4 285.195 190.029 285.124 189.678 284.98C188.805 284.616 188.369 283.939 188.369 282.949C188.369 282.663 188.408 282.396 188.486 282.148C188.929 280.872 190.68 280.234 193.74 280.234V279.004C193.701 277.741 193.07 277.07 191.846 276.992C191.325 276.992 190.941 277.155 190.693 277.48C190.628 277.572 190.505 277.858 190.322 278.34C190.179 278.717 189.958 278.906 189.658 278.906C189.593 278.906 189.528 278.9 189.463 278.887C189.085 278.822 188.896 278.587 188.896 278.184C188.896 277.962 188.975 277.741 189.131 277.52C189.626 276.842 190.602 276.504 192.061 276.504C192.178 276.504 192.295 276.504 192.412 276.504C194.274 276.608 195.205 277.591 195.205 279.453V283.574C195.218 284.225 195.394 284.564 195.732 284.59C196.149 284.577 196.403 284.095 196.494 283.145L197.002 283.164C197.002 283.229 196.995 283.301 196.982 283.379C196.878 284.59 196.325 285.195 195.322 285.195ZM191.436 284.414C191.722 284.414 192.015 284.349 192.314 284.219C193.07 283.854 193.545 283.223 193.74 282.324V280.762C192.725 280.775 191.95 280.84 191.416 280.957C190.413 281.191 189.912 281.745 189.912 282.617C189.912 282.839 189.932 283.04 189.971 283.223C190.153 284.017 190.641 284.414 191.436 284.414ZM210.967 284.512C211.045 284.512 211.11 284.518 211.162 284.531C211.357 284.557 211.455 284.714 211.455 285H208.701L208.564 283.008C208.421 283.372 208.232 283.704 207.998 284.004C207.373 284.798 206.572 285.195 205.596 285.195C203.747 285.182 202.816 284.062 202.803 281.836V277.188H201.299V276.699H204.268V282.129C204.268 282.337 204.281 282.533 204.307 282.715C204.476 283.809 205.094 284.355 206.162 284.355C206.553 284.355 206.93 284.232 207.295 283.984C208.115 283.438 208.525 282.578 208.525 281.406V277.188H206.924V276.699H209.99V284.512H210.967ZM216.377 284.512C216.455 284.512 216.52 284.518 216.572 284.531C216.768 284.557 216.865 284.714 216.865 285H212.568V284.512C213.011 284.512 213.33 284.479 213.525 284.414C213.864 284.297 214.033 283.939 214.033 283.34V277.188H212.568V276.699H215.4L215.479 278.652C215.622 278.288 215.811 277.956 216.045 277.656C216.67 276.888 217.464 276.504 218.428 276.504C218.91 276.504 219.359 276.628 219.775 276.875C220.674 277.435 221.123 278.366 221.123 279.668V284.512H222.1C222.178 284.512 222.243 284.518 222.295 284.531C222.49 284.557 222.588 284.714 222.588 285H218.193V284.512C218.636 284.512 218.955 284.479 219.15 284.414C219.489 284.297 219.658 283.939 219.658 283.34V279.473C219.658 279.095 219.6 278.757 219.482 278.457C219.196 277.715 218.656 277.344 217.861 277.344C217.497 277.344 217.139 277.454 216.787 277.676C215.967 278.21 215.537 279.082 215.498 280.293V284.512H216.377ZM227.666 284.512C227.731 284.512 227.796 284.518 227.861 284.531C228.057 284.557 228.154 284.714 228.154 285H223.662V284.512C224.105 284.512 224.424 284.486 224.619 284.434C225.023 284.303 225.225 283.939 225.225 283.34V277.188H223.662V276.699H226.689V284.512H227.666ZM226.924 273.848C226.924 274.004 226.891 274.154 226.826 274.297C226.644 274.714 226.325 274.922 225.869 274.922C225.726 274.922 225.583 274.896 225.439 274.844C225.01 274.661 224.795 274.329 224.795 273.848C224.795 273.691 224.827 273.542 224.893 273.398C225.088 272.982 225.413 272.773 225.869 272.773C226.012 272.773 226.162 272.806 226.318 272.871C226.722 273.066 226.924 273.392 226.924 273.848ZM231.182 280.84C231.182 281.4 231.227 281.908 231.318 282.363C231.657 283.926 232.484 284.707 233.799 284.707C234.046 284.707 234.287 284.674 234.521 284.609C235.719 284.232 236.318 282.949 236.318 280.762C236.318 280.384 236.299 280.039 236.26 279.727C236.025 277.904 235.186 276.992 233.74 276.992C233.428 276.992 233.128 277.044 232.842 277.148C231.735 277.591 231.182 278.822 231.182 280.84ZM233.799 276.504C234.658 276.504 235.446 276.732 236.162 277.188C237.373 277.982 237.979 279.199 237.979 280.84C237.979 282.051 237.601 283.06 236.846 283.867C236.025 284.753 234.99 285.195 233.74 285.195C232.855 285.195 232.048 284.948 231.318 284.453C230.12 283.633 229.521 282.402 229.521 280.762C229.521 279.577 229.906 278.587 230.674 277.793C231.507 276.934 232.549 276.504 233.799 276.504ZM235.615 273.613C235.472 273.743 235.218 273.926 234.854 274.16C233.747 274.85 233.037 275.319 232.725 275.566L232.412 275.234C232.738 274.883 233.089 274.414 233.467 273.828C233.988 273.008 234.3 272.546 234.404 272.441C234.574 272.285 234.762 272.201 234.971 272.188C235.088 272.188 235.212 272.22 235.342 272.285C235.693 272.467 235.869 272.728 235.869 273.066C235.856 273.249 235.771 273.431 235.615 273.613ZM243.154 284.512C243.232 284.512 243.298 284.518 243.35 284.531C243.545 284.557 243.643 284.714 243.643 285H239.346V284.512C239.788 284.512 240.107 284.479 240.303 284.414C240.641 284.297 240.811 283.939 240.811 283.34V277.188H239.346V276.699H242.178L242.256 278.652C242.399 278.288 242.588 277.956 242.822 277.656C243.447 276.888 244.242 276.504 245.205 276.504C245.687 276.504 246.136 276.628 246.553 276.875C247.451 277.435 247.9 278.366 247.9 279.668V284.512H248.877C248.955 284.512 249.02 284.518 249.072 284.531C249.268 284.557 249.365 284.714 249.365 285H244.971V284.512C245.413 284.512 245.732 284.479 245.928 284.414C246.266 284.297 246.436 283.939 246.436 283.34V279.473C246.436 279.095 246.377 278.757 246.26 278.457C245.973 277.715 245.433 277.344 244.639 277.344C244.274 277.344 243.916 277.454 243.564 277.676C242.744 278.21 242.314 279.082 242.275 280.293V284.512H243.154ZM252.842 284.277C252.816 285.163 252.406 286.035 251.611 286.895L251.201 286.602C251.761 286.016 252.048 285.547 252.061 285.195C252.048 285.052 251.898 284.941 251.611 284.863C251.572 284.85 251.52 284.837 251.455 284.824C251.038 284.668 250.83 284.382 250.83 283.965C250.83 283.835 250.856 283.704 250.908 283.574C251.064 283.184 251.351 282.988 251.768 282.988C251.859 282.988 251.956 283.001 252.061 283.027C252.581 283.158 252.842 283.574 252.842 284.277ZM79.8535 297.789H78.291V305.641C78.291 306.591 78.0892 307.385 77.6855 308.023C77.1126 308.909 76.2663 309.352 75.1465 309.352C74.7038 309.352 74.3001 309.286 73.9355 309.156C73.2585 308.909 72.9199 308.525 72.9199 308.004C72.9199 307.913 72.9395 307.815 72.9785 307.711C73.1087 307.333 73.3757 307.145 73.7793 307.145C74.0918 307.145 74.3262 307.249 74.4824 307.457C74.5345 307.535 74.6322 307.802 74.7754 308.258C74.8926 308.661 75.127 308.863 75.4785 308.863C75.6738 308.863 75.8496 308.811 76.0059 308.707C76.4095 308.395 76.6113 307.438 76.6113 305.836V297.789H74.8535V297.281H79.8535V297.789ZM88.1738 309.195C87.2624 309.182 86.7285 308.596 86.5723 307.438C86.4551 307.711 86.2793 307.971 86.0449 308.219C85.3939 308.87 84.5931 309.195 83.6426 309.195C83.252 309.195 82.8809 309.124 82.5293 308.98C81.6569 308.616 81.2207 307.939 81.2207 306.949C81.2207 306.663 81.2598 306.396 81.3379 306.148C81.7806 304.872 83.5319 304.234 86.5918 304.234V303.004C86.5527 301.741 85.9212 301.07 84.6973 300.992C84.1764 300.992 83.7923 301.155 83.5449 301.48C83.4798 301.572 83.3561 301.858 83.1738 302.34C83.0306 302.717 82.8092 302.906 82.5098 302.906C82.4447 302.906 82.3796 302.9 82.3145 302.887C81.9368 302.822 81.748 302.587 81.748 302.184C81.748 301.962 81.8262 301.741 81.9824 301.52C82.4772 300.842 83.4538 300.504 84.9121 300.504C85.0293 300.504 85.1465 300.504 85.2637 300.504C87.1257 300.608 88.0566 301.591 88.0566 303.453V307.574C88.0697 308.225 88.2454 308.564 88.584 308.59C89.0007 308.577 89.2546 308.095 89.3457 307.145L89.8535 307.164C89.8535 307.229 89.847 307.301 89.834 307.379C89.7298 308.59 89.1764 309.195 88.1738 309.195ZM84.2871 308.414C84.5736 308.414 84.8665 308.349 85.166 308.219C85.9212 307.854 86.3965 307.223 86.5918 306.324V304.762C85.5762 304.775 84.8014 304.84 84.2676 304.957C83.265 305.191 82.7637 305.745 82.7637 306.617C82.7637 306.839 82.7832 307.04 82.8223 307.223C83.0046 308.017 83.4928 308.414 84.2871 308.414ZM94.3457 308.512C94.4108 308.512 94.4759 308.518 94.541 308.531C94.7363 308.57 94.834 308.727 94.834 309H90.5371V308.512C90.9798 308.512 91.2988 308.479 91.4941 308.414C91.8327 308.297 92.002 307.939 92.002 307.34V301.188H90.5371V300.699H93.3691L93.4473 302.652C93.5775 302.301 93.7533 301.982 93.9746 301.695C94.5866 300.901 95.3613 300.504 96.2988 300.504C96.5462 300.504 96.7871 300.549 97.0215 300.641C97.8158 300.94 98.3301 301.604 98.5645 302.633C98.6686 302.372 98.7988 302.125 98.9551 301.891C99.554 300.966 100.348 300.504 101.338 300.504C101.794 300.504 102.217 300.621 102.607 300.855C103.48 301.389 103.916 302.327 103.916 303.668V308.512H104.912C104.99 308.512 105.055 308.518 105.107 308.531C105.303 308.557 105.4 308.714 105.4 309H101.084V308.512C101.527 308.512 101.839 308.479 102.021 308.414C102.308 308.297 102.451 307.939 102.451 307.34V303.473C102.451 303.056 102.386 302.685 102.256 302.359C101.982 301.669 101.514 301.324 100.85 301.324C100.602 301.324 100.342 301.389 100.068 301.52C99.3522 301.897 98.89 302.561 98.6816 303.512V303.668V308.512H99.5605C99.6387 308.512 99.7038 308.518 99.7559 308.531C99.9512 308.557 100.049 308.714 100.049 309H95.8496V308.512C96.2923 308.512 96.6048 308.479 96.7871 308.414C97.0736 308.297 97.2168 307.939 97.2168 307.34V303.473C97.2168 303.082 97.1647 302.73 97.0605 302.418C96.8132 301.702 96.3639 301.344 95.7129 301.344C95.3613 301.344 95.0098 301.474 94.6582 301.734C93.903 302.294 93.5059 303.147 93.4668 304.293V308.512H94.3457ZM115.947 308.512C116.025 308.512 116.09 308.518 116.143 308.531C116.338 308.557 116.436 308.714 116.436 309H113.682L113.545 307.008C113.402 307.372 113.213 307.704 112.979 308.004C112.354 308.798 111.553 309.195 110.576 309.195C108.727 309.182 107.796 308.062 107.783 305.836V301.188H106.279V300.699H109.248V306.129C109.248 306.337 109.261 306.533 109.287 306.715C109.456 307.809 110.075 308.355 111.143 308.355C111.533 308.355 111.911 308.232 112.275 307.984C113.096 307.438 113.506 306.578 113.506 305.406V301.188H111.904V300.699H114.971V308.512H115.947ZM121.357 308.512C121.436 308.512 121.501 308.518 121.553 308.531C121.748 308.557 121.846 308.714 121.846 309H117.549V308.512C117.992 308.512 118.311 308.479 118.506 308.414C118.844 308.297 119.014 307.939 119.014 307.34V301.188H117.549V300.699H120.381L120.459 302.652C120.602 302.288 120.791 301.956 121.025 301.656C121.65 300.888 122.445 300.504 123.408 300.504C123.89 300.504 124.339 300.628 124.756 300.875C125.654 301.435 126.104 302.366 126.104 303.668V308.512H127.08C127.158 308.512 127.223 308.518 127.275 308.531C127.471 308.557 127.568 308.714 127.568 309H123.174V308.512C123.617 308.512 123.936 308.479 124.131 308.414C124.469 308.297 124.639 307.939 124.639 307.34V303.473C124.639 303.095 124.58 302.757 124.463 302.457C124.176 301.715 123.636 301.344 122.842 301.344C122.477 301.344 122.119 301.454 121.768 301.676C120.947 302.21 120.518 303.082 120.479 304.293V308.512H121.357ZM135.498 309L135.342 306.93C134.704 308.414 133.675 309.169 132.256 309.195C131.566 309.195 130.934 308.993 130.361 308.59C129.346 307.848 128.838 306.669 128.838 305.055C128.838 304.078 129.059 303.199 129.502 302.418C130.231 301.142 131.312 300.504 132.744 300.504C133.825 300.504 134.684 300.855 135.322 301.559V296.793H133.467V296.305H136.787L136.826 308.512H137.803C137.881 308.512 137.946 308.518 137.998 308.531C138.193 308.557 138.291 308.714 138.291 309H135.498ZM130.498 304.82C130.498 305.432 130.563 305.979 130.693 306.461C131.019 307.763 131.715 308.414 132.783 308.414C133.317 308.414 133.792 308.225 134.209 307.848C134.99 307.145 135.381 306.012 135.381 304.449C135.381 303.707 135.27 303.062 135.049 302.516C134.645 301.5 133.968 300.992 133.018 300.992C132.64 300.992 132.295 301.077 131.982 301.246C130.993 301.793 130.498 302.984 130.498 304.82ZM143.408 308.492C143.486 308.492 143.558 308.499 143.623 308.512C143.792 308.538 143.877 308.701 143.877 309H139.346V308.492C140.309 308.492 140.804 308.154 140.83 307.477V301.207H139.346V300.699H142.393V308.492H143.408ZM143.33 297.613C143.187 297.743 142.933 297.926 142.568 298.16C141.462 298.85 140.752 299.319 140.439 299.566L140.127 299.234C140.452 298.883 140.804 298.414 141.182 297.828C141.702 297.008 142.015 296.546 142.119 296.441C142.288 296.285 142.477 296.201 142.686 296.188C142.803 296.188 142.926 296.22 143.057 296.285C143.408 296.467 143.584 296.728 143.584 297.066C143.571 297.249 143.486 297.431 143.33 297.613ZM147.354 308.277C147.327 309.163 146.917 310.035 146.123 310.895L145.713 310.602C146.273 310.016 146.559 309.547 146.572 309.195C146.559 309.052 146.41 308.941 146.123 308.863C146.084 308.85 146.032 308.837 145.967 308.824C145.55 308.668 145.342 308.382 145.342 307.965C145.342 307.835 145.368 307.704 145.42 307.574C145.576 307.184 145.863 306.988 146.279 306.988C146.37 306.988 146.468 307.001 146.572 307.027C147.093 307.158 147.354 307.574 147.354 308.277ZM158.213 309.098H157.979C157.77 309.098 157.601 309.059 157.471 308.98C157.262 308.863 157.015 308.421 156.729 307.652L153.018 297.789H151.846V297.281H156.26V297.789H154.697L158.232 307.008L161.494 297.789H159.932V297.281H163.213V297.789H162.236L158.213 309.098ZM170.85 309.195C169.938 309.182 169.404 308.596 169.248 307.438C169.131 307.711 168.955 307.971 168.721 308.219C168.07 308.87 167.269 309.195 166.318 309.195C165.928 309.195 165.557 309.124 165.205 308.98C164.333 308.616 163.896 307.939 163.896 306.949C163.896 306.663 163.936 306.396 164.014 306.148C164.456 304.872 166.208 304.234 169.268 304.234V303.004C169.229 301.741 168.597 301.07 167.373 300.992C166.852 300.992 166.468 301.155 166.221 301.48C166.156 301.572 166.032 301.858 165.85 302.34C165.706 302.717 165.485 302.906 165.186 302.906C165.12 302.906 165.055 302.9 164.99 302.887C164.613 302.822 164.424 302.587 164.424 302.184C164.424 301.962 164.502 301.741 164.658 301.52C165.153 300.842 166.13 300.504 167.588 300.504C167.705 300.504 167.822 300.504 167.939 300.504C169.801 300.608 170.732 301.591 170.732 303.453V307.574C170.745 308.225 170.921 308.564 171.26 308.59C171.676 308.577 171.93 308.095 172.021 307.145L172.529 307.164C172.529 307.229 172.523 307.301 172.51 307.379C172.406 308.59 171.852 309.195 170.85 309.195ZM166.963 308.414C167.249 308.414 167.542 308.349 167.842 308.219C168.597 307.854 169.072 307.223 169.268 306.324V304.762C168.252 304.775 167.477 304.84 166.943 304.957C165.941 305.191 165.439 305.745 165.439 306.617C165.439 306.839 165.459 307.04 165.498 307.223C165.68 308.017 166.169 308.414 166.963 308.414ZM177.256 308.512C177.334 308.512 177.399 308.518 177.451 308.531C177.646 308.557 177.744 308.714 177.744 309H173.271V308.512C173.714 308.512 174.033 308.479 174.229 308.414C174.567 308.297 174.736 307.939 174.736 307.34V296.793H173.271V296.305H176.201V308.512H177.256ZM182.9 308.512C182.979 308.512 183.044 308.518 183.096 308.531C183.291 308.557 183.389 308.714 183.389 309H178.916V308.512C179.359 308.512 179.678 308.479 179.873 308.414C180.212 308.297 180.381 307.939 180.381 307.34V296.793H178.916V296.305H181.846V308.512H182.9ZM188.779 300.992C188.441 300.992 188.122 301.07 187.822 301.227C186.911 301.682 186.423 302.659 186.357 304.156L188.428 304.215C189.027 304.228 189.489 304.202 189.814 304.137C190.439 303.993 190.752 303.596 190.752 302.945C190.752 302.659 190.7 302.392 190.596 302.145C190.296 301.376 189.691 300.992 188.779 300.992ZM192.178 307.125C192.1 307.307 192.008 307.49 191.904 307.672C191.24 308.688 190.205 309.195 188.799 309.195C187.913 309.195 187.126 308.967 186.436 308.512C185.277 307.73 184.697 306.533 184.697 304.918C184.697 304.033 184.88 303.238 185.244 302.535C185.947 301.181 187.113 300.504 188.74 300.504C189.574 300.504 190.309 300.693 190.947 301.07C191.846 301.591 192.295 302.294 192.295 303.18C192.295 303.661 192.119 304.033 191.768 304.293C191.312 304.618 190.29 304.768 188.701 304.742L186.357 304.703C186.37 305.25 186.429 305.751 186.533 306.207C186.885 307.835 187.744 308.648 189.111 308.648C189.229 308.648 189.352 308.642 189.482 308.629C190.498 308.499 191.234 307.939 191.689 306.949L192.178 307.125ZM204.229 309L204.072 306.93C203.434 308.414 202.406 309.169 200.986 309.195C200.296 309.195 199.665 308.993 199.092 308.59C198.076 307.848 197.568 306.669 197.568 305.055C197.568 304.078 197.79 303.199 198.232 302.418C198.962 301.142 200.042 300.504 201.475 300.504C202.555 300.504 203.415 300.855 204.053 301.559V296.793H202.197V296.305H205.518L205.557 308.512H206.533C206.611 308.512 206.676 308.518 206.729 308.531C206.924 308.557 207.021 308.714 207.021 309H204.229ZM199.229 304.82C199.229 305.432 199.294 305.979 199.424 306.461C199.749 307.763 200.446 308.414 201.514 308.414C202.048 308.414 202.523 308.225 202.939 307.848C203.721 307.145 204.111 306.012 204.111 304.449C204.111 303.707 204.001 303.062 203.779 302.516C203.376 301.5 202.699 300.992 201.748 300.992C201.37 300.992 201.025 301.077 200.713 301.246C199.723 301.793 199.229 302.984 199.229 304.82ZM212.354 300.992C212.015 300.992 211.696 301.07 211.396 301.227C210.485 301.682 209.997 302.659 209.932 304.156L212.002 304.215C212.601 304.228 213.063 304.202 213.389 304.137C214.014 303.993 214.326 303.596 214.326 302.945C214.326 302.659 214.274 302.392 214.17 302.145C213.87 301.376 213.265 300.992 212.354 300.992ZM215.752 307.125C215.674 307.307 215.583 307.49 215.479 307.672C214.814 308.688 213.779 309.195 212.373 309.195C211.488 309.195 210.7 308.967 210.01 308.512C208.851 307.73 208.271 306.533 208.271 304.918C208.271 304.033 208.454 303.238 208.818 302.535C209.521 301.181 210.687 300.504 212.314 300.504C213.148 300.504 213.883 300.693 214.521 301.07C215.42 301.591 215.869 302.294 215.869 303.18C215.869 303.661 215.693 304.033 215.342 304.293C214.886 304.618 213.864 304.768 212.275 304.742L209.932 304.703C209.945 305.25 210.003 305.751 210.107 306.207C210.459 307.835 211.318 308.648 212.686 308.648C212.803 308.648 212.926 308.642 213.057 308.629C214.072 308.499 214.808 307.939 215.264 306.949L215.752 307.125ZM221.182 308.512C221.26 308.512 221.325 308.518 221.377 308.531C221.572 308.557 221.67 308.714 221.67 309H217.197V308.512C217.64 308.512 217.959 308.479 218.154 308.414C218.493 308.297 218.662 307.939 218.662 307.34V296.793H217.197V296.305H220.127V308.512H221.182ZM236.709 308.102C235.511 308.818 234.255 309.182 232.939 309.195C231.143 309.195 229.684 308.596 228.564 307.398C227.51 306.24 226.982 304.807 226.982 303.102C226.982 301.695 227.36 300.452 228.115 299.371C229.209 297.848 230.785 297.086 232.842 297.086C233.467 297.086 234.079 297.158 234.678 297.301C235.589 297.535 236.234 297.841 236.611 298.219C236.611 297.867 236.631 297.613 236.67 297.457C236.735 297.275 236.911 297.184 237.197 297.184L237.256 300.777H236.787C236.696 300.491 236.585 300.211 236.455 299.938C235.726 298.401 234.548 297.633 232.92 297.633C232.204 297.633 231.553 297.815 230.967 298.18C229.626 299.052 228.955 300.706 228.955 303.141C228.955 304.273 229.105 305.257 229.404 306.09C230.016 307.796 231.169 308.648 232.861 308.648C234.854 308.635 236.182 307.555 236.846 305.406H237.314V309.098C237.158 309.098 237.035 309.078 236.943 309.039C236.787 308.961 236.709 308.648 236.709 308.102ZM245.83 309.195C244.919 309.182 244.385 308.596 244.229 307.438C244.111 307.711 243.936 307.971 243.701 308.219C243.05 308.87 242.249 309.195 241.299 309.195C240.908 309.195 240.537 309.124 240.186 308.98C239.313 308.616 238.877 307.939 238.877 306.949C238.877 306.663 238.916 306.396 238.994 306.148C239.437 304.872 241.188 304.234 244.248 304.234V303.004C244.209 301.741 243.577 301.07 242.354 300.992C241.833 300.992 241.449 301.155 241.201 301.48C241.136 301.572 241.012 301.858 240.83 302.34C240.687 302.717 240.465 302.906 240.166 302.906C240.101 302.906 240.036 302.9 239.971 302.887C239.593 302.822 239.404 302.587 239.404 302.184C239.404 301.962 239.482 301.741 239.639 301.52C240.133 300.842 241.11 300.504 242.568 300.504C242.686 300.504 242.803 300.504 242.92 300.504C244.782 300.608 245.713 301.591 245.713 303.453V307.574C245.726 308.225 245.902 308.564 246.24 308.59C246.657 308.577 246.911 308.095 247.002 307.145L247.51 307.164C247.51 307.229 247.503 307.301 247.49 307.379C247.386 308.59 246.833 309.195 245.83 309.195ZM241.943 308.414C242.23 308.414 242.523 308.349 242.822 308.219C243.577 307.854 244.053 307.223 244.248 306.324V304.762C243.232 304.775 242.458 304.84 241.924 304.957C240.921 305.191 240.42 305.745 240.42 306.617C240.42 306.839 240.439 307.04 240.479 307.223C240.661 308.017 241.149 308.414 241.943 308.414ZM257.666 308.512C257.744 308.512 257.809 308.518 257.861 308.531C258.057 308.557 258.154 308.714 258.154 309H255.4L255.264 307.008C255.12 307.372 254.932 307.704 254.697 308.004C254.072 308.798 253.271 309.195 252.295 309.195C250.446 309.182 249.515 308.062 249.502 305.836V301.188H247.998V300.699H250.967V306.129C250.967 306.337 250.98 306.533 251.006 306.715C251.175 307.809 251.794 308.355 252.861 308.355C253.252 308.355 253.63 308.232 253.994 307.984C254.814 307.438 255.225 306.578 255.225 305.406V301.188H253.623V300.699H256.689V308.512H257.666ZM259.463 304.938C259.463 304.078 259.626 303.31 259.951 302.633C260.641 301.214 261.859 300.504 263.604 300.504C264.307 300.504 264.958 300.654 265.557 300.953C266.403 301.383 266.826 301.93 266.826 302.594C266.826 302.672 266.813 302.757 266.787 302.848C266.67 303.238 266.39 303.421 265.947 303.395C265.791 303.382 265.648 303.342 265.518 303.277C265.309 303.147 265.166 302.822 265.088 302.301C265.049 302.079 265.016 301.917 264.99 301.812C264.847 301.266 264.424 300.992 263.721 300.992C263.265 300.992 262.848 301.109 262.471 301.344C261.572 301.917 261.123 303.056 261.123 304.762C261.123 305.725 261.318 306.559 261.709 307.262C262.23 308.186 262.952 308.648 263.877 308.648C263.981 308.648 264.085 308.642 264.189 308.629C265.296 308.525 266.09 307.958 266.572 306.93L267.08 307.105C266.989 307.327 266.865 307.548 266.709 307.77C266.019 308.72 264.997 309.195 263.643 309.195C262.731 309.195 261.917 308.954 261.201 308.473C260.042 307.691 259.463 306.513 259.463 304.938ZM274.814 309.195C273.903 309.182 273.369 308.596 273.213 307.438C273.096 307.711 272.92 307.971 272.686 308.219C272.035 308.87 271.234 309.195 270.283 309.195C269.893 309.195 269.521 309.124 269.17 308.98C268.298 308.616 267.861 307.939 267.861 306.949C267.861 306.663 267.9 306.396 267.979 306.148C268.421 304.872 270.173 304.234 273.232 304.234V303.004C273.193 301.741 272.562 301.07 271.338 300.992C270.817 300.992 270.433 301.155 270.186 301.48C270.12 301.572 269.997 301.858 269.814 302.34C269.671 302.717 269.45 302.906 269.15 302.906C269.085 302.906 269.02 302.9 268.955 302.887C268.577 302.822 268.389 302.587 268.389 302.184C268.389 301.962 268.467 301.741 268.623 301.52C269.118 300.842 270.094 300.504 271.553 300.504C271.67 300.504 271.787 300.504 271.904 300.504C273.766 300.608 274.697 301.591 274.697 303.453V307.574C274.71 308.225 274.886 308.564 275.225 308.59C275.641 308.577 275.895 308.095 275.986 307.145L276.494 307.164C276.494 307.229 276.488 307.301 276.475 307.379C276.37 308.59 275.817 309.195 274.814 309.195ZM270.928 308.414C271.214 308.414 271.507 308.349 271.807 308.219C272.562 307.854 273.037 307.223 273.232 306.324V304.762C272.217 304.775 271.442 304.84 270.908 304.957C269.906 305.191 269.404 305.745 269.404 306.617C269.404 306.839 269.424 307.04 269.463 307.223C269.645 308.017 270.133 308.414 270.928 308.414Z" fill="#231F20"/>
<path d="M120.76 36.7969H120.369L120.096 35.8789C120.083 35.8268 120.063 35.7617 120.037 35.6836C119.633 34.4206 118.963 33.7891 118.025 33.7891H114.9V38.6719H118.924V39.2383H114.9V44.4922H118.025C118.247 44.4922 118.455 44.4596 118.65 44.3945C119.288 44.1732 119.77 43.5091 120.096 42.4023L120.369 41.4844H120.76L120.662 45H111.658V44.4922H113.221V33.7891H111.658V33.2812H120.662L120.76 36.7969ZM125.447 44.668C126.346 44.668 126.951 44.3945 127.264 43.8477C127.381 43.6523 127.439 43.4375 127.439 43.2031C127.439 42.6562 127.042 42.1875 126.248 41.7969C126.079 41.7057 125.799 41.5755 125.408 41.4062C124.34 40.9635 123.631 40.5469 123.279 40.1562C122.902 39.7266 122.713 39.2253 122.713 38.6523C122.713 37.7539 123.208 37.1224 124.197 36.7578C124.653 36.5885 125.148 36.5039 125.682 36.5039C126.541 36.5039 127.283 36.6862 127.908 37.0508C127.908 36.6732 127.999 36.4583 128.182 36.4062C128.26 36.3932 128.344 36.3867 128.436 36.3867V38.8281H127.928C127.902 37.6302 127.238 37.0247 125.936 37.0117C124.959 37.0117 124.354 37.2982 124.119 37.8711C124.054 38.0273 124.021 38.1901 124.021 38.3594C124.021 38.9193 124.425 39.3945 125.232 39.7852C125.415 39.8763 125.701 40 126.092 40.1562C127.146 40.5859 127.85 40.9961 128.201 41.3867C128.579 41.8034 128.768 42.2982 128.768 42.8711C128.768 43.9258 128.208 44.6289 127.088 44.9805C126.658 45.1237 126.189 45.1953 125.682 45.1953C124.744 45.1823 123.93 44.9479 123.24 44.4922C123.24 44.8307 123.156 45.026 122.986 45.0781C122.908 45.0911 122.817 45.0977 122.713 45.0977V42.1289H123.26C123.286 43.8086 124.015 44.6549 125.447 44.668ZM129.939 37.1875V36.6992H131.307V34.8438L132.771 34.4336V36.6992H135.799V37.1875H132.771V43.125C132.785 44.1016 133.143 44.6029 133.846 44.6289C134.471 44.5378 134.946 43.9518 135.271 42.8711L135.799 42.9688C135.799 42.9818 135.799 42.9948 135.799 43.0078C135.499 44.4792 134.751 45.2148 133.553 45.2148C132.146 45.1628 131.398 44.3229 131.307 42.6953V37.1875H129.939ZM143.533 45.1953C142.622 45.1823 142.088 44.5964 141.932 43.4375C141.814 43.7109 141.639 43.9714 141.404 44.2188C140.753 44.8698 139.952 45.1953 139.002 45.1953C138.611 45.1953 138.24 45.1237 137.889 44.9805C137.016 44.6159 136.58 43.9388 136.58 42.9492C136.58 42.6628 136.619 42.3958 136.697 42.1484C137.14 40.8724 138.891 40.2344 141.951 40.2344V39.0039C141.912 37.7409 141.281 37.0703 140.057 36.9922C139.536 36.9922 139.152 37.1549 138.904 37.4805C138.839 37.5716 138.715 37.8581 138.533 38.3398C138.39 38.7174 138.169 38.9062 137.869 38.9062C137.804 38.9062 137.739 38.8997 137.674 38.8867C137.296 38.8216 137.107 38.5872 137.107 38.1836C137.107 37.9622 137.186 37.7409 137.342 37.5195C137.837 36.8424 138.813 36.5039 140.271 36.5039C140.389 36.5039 140.506 36.5039 140.623 36.5039C142.485 36.6081 143.416 37.5911 143.416 39.4531V43.5742C143.429 44.2253 143.605 44.5638 143.943 44.5898C144.36 44.5768 144.614 44.0951 144.705 43.1445L145.213 43.1641C145.213 43.2292 145.206 43.3008 145.193 43.3789C145.089 44.5898 144.536 45.1953 143.533 45.1953ZM139.646 44.4141C139.933 44.4141 140.226 44.349 140.525 44.2188C141.281 43.8542 141.756 43.2227 141.951 42.3242V40.7617C140.936 40.7747 140.161 40.8398 139.627 40.957C138.624 41.1914 138.123 41.7448 138.123 42.6172C138.123 42.8385 138.143 43.0404 138.182 43.2227C138.364 44.0169 138.852 44.4141 139.646 44.4141ZM149.021 44.668C149.92 44.668 150.525 44.3945 150.838 43.8477C150.955 43.6523 151.014 43.4375 151.014 43.2031C151.014 42.6562 150.617 42.1875 149.822 41.7969C149.653 41.7057 149.373 41.5755 148.982 41.4062C147.915 40.9635 147.205 40.5469 146.854 40.1562C146.476 39.7266 146.287 39.2253 146.287 38.6523C146.287 37.7539 146.782 37.1224 147.771 36.7578C148.227 36.5885 148.722 36.5039 149.256 36.5039C150.115 36.5039 150.857 36.6862 151.482 37.0508C151.482 36.6732 151.574 36.4583 151.756 36.4062C151.834 36.3932 151.919 36.3867 152.01 36.3867V38.8281H151.502C151.476 37.6302 150.812 37.0247 149.51 37.0117C148.533 37.0117 147.928 37.2982 147.693 37.8711C147.628 38.0273 147.596 38.1901 147.596 38.3594C147.596 38.9193 147.999 39.3945 148.807 39.7852C148.989 39.8763 149.275 40 149.666 40.1562C150.721 40.5859 151.424 40.9961 151.775 41.3867C152.153 41.8034 152.342 42.2982 152.342 42.8711C152.342 43.9258 151.782 44.6289 150.662 44.9805C150.232 45.1237 149.764 45.1953 149.256 45.1953C148.318 45.1823 147.505 44.9479 146.814 44.4922C146.814 44.8307 146.73 45.026 146.561 45.0781C146.482 45.0911 146.391 45.0977 146.287 45.0977V42.1289H146.834C146.86 43.8086 147.589 44.6549 149.021 44.668ZM161.521 44.5117C161.587 44.5117 161.652 44.5182 161.717 44.5312C161.912 44.5573 162.01 44.7135 162.01 45H157.518V44.5117C157.96 44.5117 158.279 44.4857 158.475 44.4336C158.878 44.3034 159.08 43.9388 159.08 43.3398V37.1875H157.518V36.6992H160.545V44.5117H161.521ZM160.779 33.8477C160.779 34.0039 160.747 34.1536 160.682 34.2969C160.499 34.7135 160.18 34.9219 159.725 34.9219C159.581 34.9219 159.438 34.8958 159.295 34.8438C158.865 34.6615 158.65 34.3294 158.65 33.8477C158.65 33.6914 158.683 33.5417 158.748 33.3984C158.943 32.9818 159.269 32.7734 159.725 32.7734C159.868 32.7734 160.018 32.806 160.174 32.8711C160.577 33.0664 160.779 33.3919 160.779 33.8477ZM166.99 44.5117C167.068 44.5117 167.133 44.5182 167.186 44.5312C167.381 44.5573 167.479 44.7135 167.479 45H163.182V44.5117C163.624 44.5117 163.943 44.4792 164.139 44.4141C164.477 44.2969 164.646 43.9388 164.646 43.3398V37.1875H163.182V36.6992H166.014L166.092 38.6523C166.235 38.2878 166.424 37.9557 166.658 37.6562C167.283 36.888 168.077 36.5039 169.041 36.5039C169.523 36.5039 169.972 36.6276 170.389 36.875C171.287 37.4349 171.736 38.3659 171.736 39.668V44.5117H172.713C172.791 44.5117 172.856 44.5182 172.908 44.5312C173.104 44.5573 173.201 44.7135 173.201 45H168.807V44.5117C169.249 44.5117 169.568 44.4792 169.764 44.4141C170.102 44.2969 170.271 43.9388 170.271 43.3398V39.4727C170.271 39.0951 170.213 38.7565 170.096 38.457C169.809 37.7148 169.269 37.3438 168.475 37.3438C168.11 37.3438 167.752 37.4544 167.4 37.6758C166.58 38.2096 166.15 39.082 166.111 40.293V44.5117H166.99ZM177.537 37.1875H176.17L178.67 43.8477L181.15 37.1875H179.686V36.6992H182.693C182.693 36.7643 182.687 36.8294 182.674 36.8945C182.648 37.0898 182.492 37.1875 182.205 37.1875C182.153 37.1875 182.094 37.194 182.029 37.207C181.808 37.2461 181.619 37.4674 181.463 37.8711L178.709 45.0977H178.455C178.221 45.0977 178.025 45.0651 177.869 45C177.557 44.8828 177.27 44.4596 177.01 43.7305L174.627 37.1875H173.748V36.6992H177.537V37.1875ZM187.342 44.5117C187.407 44.5117 187.472 44.5182 187.537 44.5312C187.732 44.5573 187.83 44.7135 187.83 45H183.338V44.5117C183.781 44.5117 184.1 44.4857 184.295 44.4336C184.699 44.3034 184.9 43.9388 184.9 43.3398V37.1875H183.338V36.6992H186.365V44.5117H187.342ZM186.6 33.8477C186.6 34.0039 186.567 34.1536 186.502 34.2969C186.32 34.7135 186.001 34.9219 185.545 34.9219C185.402 34.9219 185.258 34.8958 185.115 34.8438C184.686 34.6615 184.471 34.3294 184.471 33.8477C184.471 33.6914 184.503 33.5417 184.568 33.3984C184.764 32.9818 185.089 32.7734 185.545 32.7734C185.688 32.7734 185.838 32.806 185.994 32.8711C186.398 33.0664 186.6 33.3919 186.6 33.8477ZM188.807 37.1875V36.6992H190.174V34.8438L191.639 34.4336V36.6992H194.666V37.1875H191.639V43.125C191.652 44.1016 192.01 44.6029 192.713 44.6289C193.338 44.5378 193.813 43.9518 194.139 42.8711L194.666 42.9688C194.666 42.9818 194.666 42.9948 194.666 43.0078C194.367 44.4792 193.618 45.2148 192.42 45.2148C191.014 45.1628 190.265 44.3229 190.174 42.6953V37.1875H188.807ZM202.4 45.1953C201.489 45.1823 200.955 44.5964 200.799 43.4375C200.682 43.7109 200.506 43.9714 200.271 44.2188C199.62 44.8698 198.82 45.1953 197.869 45.1953C197.479 45.1953 197.107 45.1237 196.756 44.9805C195.883 44.6159 195.447 43.9388 195.447 42.9492C195.447 42.6628 195.486 42.3958 195.564 42.1484C196.007 40.8724 197.758 40.2344 200.818 40.2344V39.0039C200.779 37.7409 200.148 37.0703 198.924 36.9922C198.403 36.9922 198.019 37.1549 197.771 37.4805C197.706 37.5716 197.583 37.8581 197.4 38.3398C197.257 38.7174 197.036 38.9062 196.736 38.9062C196.671 38.9062 196.606 38.8997 196.541 38.8867C196.163 38.8216 195.975 38.5872 195.975 38.1836C195.975 37.9622 196.053 37.7409 196.209 37.5195C196.704 36.8424 197.68 36.5039 199.139 36.5039C199.256 36.5039 199.373 36.5039 199.49 36.5039C201.352 36.6081 202.283 37.5911 202.283 39.4531V43.5742C202.296 44.2253 202.472 44.5638 202.811 44.5898C203.227 44.5768 203.481 44.0951 203.572 43.1445L204.08 43.1641C204.08 43.2292 204.074 43.3008 204.061 43.3789C203.956 44.5898 203.403 45.1953 202.4 45.1953ZM198.514 44.4141C198.8 44.4141 199.093 44.349 199.393 44.2188C200.148 43.8542 200.623 43.2227 200.818 42.3242V40.7617C199.803 40.7747 199.028 40.8398 198.494 40.957C197.492 41.1914 196.99 41.7448 196.99 42.6172C196.99 42.8385 197.01 43.0404 197.049 43.2227C197.231 44.0169 197.719 44.4141 198.514 44.4141ZM211.619 45L211.463 42.9297C210.825 44.4141 209.796 45.1693 208.377 45.1953C207.687 45.1953 207.055 44.9935 206.482 44.5898C205.467 43.8477 204.959 42.6693 204.959 41.0547C204.959 40.0781 205.18 39.1992 205.623 38.418C206.352 37.1419 207.433 36.5039 208.865 36.5039C209.946 36.5039 210.805 36.8555 211.443 37.5586V32.793H209.588V32.3047H212.908L212.947 44.5117H213.924C214.002 44.5117 214.067 44.5182 214.119 44.5312C214.314 44.5573 214.412 44.7135 214.412 45H211.619ZM206.619 40.8203C206.619 41.4323 206.684 41.9792 206.814 42.4609C207.14 43.763 207.837 44.4141 208.904 44.4141C209.438 44.4141 209.913 44.2253 210.33 43.8477C211.111 43.1445 211.502 42.0117 211.502 40.4492C211.502 39.707 211.391 39.0625 211.17 38.5156C210.766 37.5 210.089 36.9922 209.139 36.9922C208.761 36.9922 208.416 37.0768 208.104 37.2461C207.114 37.793 206.619 38.9844 206.619 40.8203ZM217.322 40.8398C217.322 41.3997 217.368 41.9076 217.459 42.3633C217.798 43.9258 218.624 44.707 219.939 44.707C220.187 44.707 220.428 44.6745 220.662 44.6094C221.86 44.2318 222.459 42.9492 222.459 40.7617C222.459 40.3841 222.439 40.0391 222.4 39.7266C222.166 37.9036 221.326 36.9922 219.881 36.9922C219.568 36.9922 219.269 37.0443 218.982 37.1484C217.876 37.5911 217.322 38.8216 217.322 40.8398ZM219.939 36.5039C220.799 36.5039 221.587 36.7318 222.303 37.1875C223.514 37.9818 224.119 39.1992 224.119 40.8398C224.119 42.0508 223.742 43.0599 222.986 43.8672C222.166 44.7526 221.131 45.1953 219.881 45.1953C218.995 45.1953 218.188 44.9479 217.459 44.4531C216.261 43.6328 215.662 42.4023 215.662 40.7617C215.662 39.5768 216.046 38.5872 216.814 37.793C217.648 36.9336 218.689 36.5039 219.939 36.5039ZM236.346 45.1953C235.434 45.1823 234.9 44.5964 234.744 43.4375C234.627 43.7109 234.451 43.9714 234.217 44.2188C233.566 44.8698 232.765 45.1953 231.814 45.1953C231.424 45.1953 231.053 45.1237 230.701 44.9805C229.829 44.6159 229.393 43.9388 229.393 42.9492C229.393 42.6628 229.432 42.3958 229.51 42.1484C229.952 40.8724 231.704 40.2344 234.764 40.2344V39.0039C234.725 37.7409 234.093 37.0703 232.869 36.9922C232.348 36.9922 231.964 37.1549 231.717 37.4805C231.652 37.5716 231.528 37.8581 231.346 38.3398C231.202 38.7174 230.981 38.9062 230.682 38.9062C230.617 38.9062 230.551 38.8997 230.486 38.8867C230.109 38.8216 229.92 38.5872 229.92 38.1836C229.92 37.9622 229.998 37.7409 230.154 37.5195C230.649 36.8424 231.626 36.5039 233.084 36.5039C233.201 36.5039 233.318 36.5039 233.436 36.5039C235.298 36.6081 236.229 37.5911 236.229 39.4531V43.5742C236.242 44.2253 236.417 44.5638 236.756 44.5898C237.173 44.5768 237.426 44.0951 237.518 43.1445L238.025 43.1641C238.025 43.2292 238.019 43.3008 238.006 43.3789C237.902 44.5898 237.348 45.1953 236.346 45.1953ZM232.459 44.4141C232.745 44.4141 233.038 44.349 233.338 44.2188C234.093 43.8542 234.568 43.2227 234.764 42.3242V40.7617C233.748 40.7747 232.973 40.8398 232.439 40.957C231.437 41.1914 230.936 41.7448 230.936 42.6172C230.936 42.8385 230.955 43.0404 230.994 43.2227C231.176 44.0169 231.665 44.4141 232.459 44.4141ZM134.607 68.5117C134.686 68.5117 134.751 68.5182 134.803 68.5312C134.998 68.5573 135.096 68.7135 135.096 69H130.623V68.5117C131.066 68.5117 131.385 68.4792 131.58 68.4141C131.919 68.2969 132.088 67.9388 132.088 67.3398V56.793H130.623V56.3047H133.553V68.5117H134.607ZM143.26 69.1953C142.348 69.1823 141.814 68.5964 141.658 67.4375C141.541 67.7109 141.365 67.9714 141.131 68.2188C140.48 68.8698 139.679 69.1953 138.729 69.1953C138.338 69.1953 137.967 69.1237 137.615 68.9805C136.743 68.6159 136.307 67.9388 136.307 66.9492C136.307 66.6628 136.346 66.3958 136.424 66.1484C136.867 64.8724 138.618 64.2344 141.678 64.2344V63.0039C141.639 61.7409 141.007 61.0703 139.783 60.9922C139.262 60.9922 138.878 61.1549 138.631 61.4805C138.566 61.5716 138.442 61.8581 138.26 62.3398C138.117 62.7174 137.895 62.9062 137.596 62.9062C137.531 62.9062 137.465 62.8997 137.4 62.8867C137.023 62.8216 136.834 62.5872 136.834 62.1836C136.834 61.9622 136.912 61.7409 137.068 61.5195C137.563 60.8424 138.54 60.5039 139.998 60.5039C140.115 60.5039 140.232 60.5039 140.35 60.5039C142.212 60.6081 143.143 61.5911 143.143 63.4531V67.5742C143.156 68.2253 143.331 68.5638 143.67 68.5898C144.087 68.5768 144.34 68.0951 144.432 67.1445L144.939 67.1641C144.939 67.2292 144.933 67.3008 144.92 67.3789C144.816 68.5898 144.262 69.1953 143.26 69.1953ZM139.373 68.4141C139.66 68.4141 139.952 68.349 140.252 68.2188C141.007 67.8542 141.482 67.2227 141.678 66.3242V64.7617C140.662 64.7747 139.887 64.8398 139.354 64.957C138.351 65.1914 137.85 65.7448 137.85 66.6172C137.85 66.8385 137.869 67.0404 137.908 67.2227C138.09 68.0169 138.579 68.4141 139.373 68.4141ZM159.256 59.918C159.256 60.1914 159.204 60.4714 159.1 60.7578C158.761 61.6432 158.045 62.2682 156.951 62.6328C157.368 62.6979 157.752 62.7956 158.104 62.9258C159.419 63.4076 160.076 64.2995 160.076 65.6016C160.076 66.2656 159.874 66.8711 159.471 67.418C158.689 68.4727 157.426 69 155.682 69H149.354V68.4727H150.916V57.8086H149.354V57.2812H155.428C156.235 57.2812 156.938 57.3919 157.537 57.6133C158.683 58.043 159.256 58.8112 159.256 59.918ZM154.529 57.8086H153.318V62.3789H154.627C154.992 62.3789 155.317 62.3138 155.604 62.1836C156.372 61.8451 156.756 61.1419 156.756 60.0742C156.743 58.5898 156.001 57.8346 154.529 57.8086ZM155.076 62.9258H153.318V68.4727H154.92C155.376 68.4727 155.779 68.388 156.131 68.2188C157.016 67.763 157.459 66.8646 157.459 65.5234C157.459 65.1068 157.394 64.7292 157.264 64.3906C156.899 63.4141 156.17 62.9258 155.076 62.9258ZM163.709 64.7812C163.709 65.7057 163.774 66.4479 163.904 67.0078C164.165 68.1276 164.783 68.6875 165.76 68.6875C166.085 68.6875 166.378 68.6224 166.639 68.4922C167.433 68.0625 167.83 66.7995 167.83 64.7031C167.83 63.8177 167.765 63.1016 167.635 62.5547C167.374 61.4349 166.749 60.875 165.76 60.875C165.382 60.875 165.05 60.9596 164.764 61.1289C164.061 61.5846 163.709 62.8021 163.709 64.7812ZM165.838 60.3672C166.88 60.3672 167.778 60.6471 168.533 61.207C169.627 62.0143 170.174 63.1797 170.174 64.7031C170.174 65.8359 169.835 66.8125 169.158 67.6328C168.299 68.6745 167.146 69.1953 165.701 69.1953C164.646 69.1953 163.729 68.8828 162.947 68.2578C161.88 67.3984 161.346 66.2135 161.346 64.7031C161.346 63.6094 161.671 62.6719 162.322 61.8906C163.182 60.875 164.354 60.3672 165.838 60.3672ZM178.201 69L177.967 67.1055C177.928 67.2096 177.876 67.3203 177.811 67.4375C177.212 68.6094 176.274 69.1953 174.998 69.1953C174.282 69.1953 173.631 68.987 173.045 68.5703C171.99 67.8021 171.463 66.6107 171.463 64.9961C171.463 63.7982 171.769 62.776 172.381 61.9297C173.149 60.888 174.178 60.3672 175.467 60.3672C176.43 60.3672 177.244 60.6732 177.908 61.2852V56.8125H176.111V56.3047H180.076V68.4922H180.994C181.098 68.4922 181.183 68.4987 181.248 68.5117C181.404 68.5508 181.482 68.7135 181.482 69H178.201ZM173.826 64.7617C173.826 65.2956 173.865 65.7839 173.943 66.2266C174.204 67.6328 174.816 68.3359 175.779 68.3359C176.131 68.3359 176.45 68.2318 176.736 68.0234C177.544 67.4245 177.947 66.2135 177.947 64.3906C177.947 63.7656 177.889 63.2122 177.771 62.7305C177.472 61.5456 176.873 60.9531 175.975 60.9531C175.675 60.9531 175.389 61.0312 175.115 61.1875C174.256 61.6953 173.826 62.8867 173.826 64.7617ZM189.432 69.1953C188.403 69.1823 187.785 68.5898 187.576 67.418C187.485 67.6523 187.361 67.8802 187.205 68.1016C186.632 68.8307 185.831 69.1953 184.803 69.1953C184.438 69.1953 184.1 69.1432 183.787 69.0391C182.811 68.7135 182.322 67.9909 182.322 66.8711C182.335 65.1393 184.048 64.2474 187.459 64.1953V62.9453C187.459 62.6979 187.446 62.4701 187.42 62.2617C187.29 61.3372 186.834 60.875 186.053 60.875C185.844 60.875 185.656 60.9141 185.486 60.9922C185.239 61.1224 185.037 61.4544 184.881 61.9883C184.829 62.1445 184.79 62.2552 184.764 62.3203C184.581 62.8021 184.256 63.043 183.787 63.043C183.67 63.043 183.553 63.0234 183.436 62.9844C183.019 62.8542 182.811 62.5677 182.811 62.125C182.811 61.8906 182.882 61.6693 183.025 61.4609C183.507 60.7318 184.568 60.3672 186.209 60.3672C186.574 60.3672 186.919 60.3997 187.244 60.4648C188.833 60.7773 189.627 61.7734 189.627 63.4531V67.5547C189.627 68.1797 189.777 68.5052 190.076 68.5312C190.467 68.5182 190.701 68.056 190.779 67.1445L191.287 67.1641C191.261 67.5286 191.215 67.8411 191.15 68.1016C190.929 68.8307 190.356 69.1953 189.432 69.1953ZM185.701 68.375C185.857 68.375 186.027 68.3359 186.209 68.2578C186.821 67.9844 187.238 67.4049 187.459 66.5195V64.7422C186.808 64.7552 186.274 64.8203 185.857 64.9375C184.972 65.1719 184.529 65.7318 184.529 66.6172C184.529 66.6823 184.529 66.7474 184.529 66.8125C184.581 67.8542 184.972 68.375 185.701 68.375ZM202.635 69L202.479 66.9297C201.84 68.4141 200.812 69.1693 199.393 69.1953C198.702 69.1953 198.071 68.9935 197.498 68.5898C196.482 67.8477 195.975 66.6693 195.975 65.0547C195.975 64.0781 196.196 63.1992 196.639 62.418C197.368 61.1419 198.449 60.5039 199.881 60.5039C200.962 60.5039 201.821 60.8555 202.459 61.5586V56.793H200.604V56.3047H203.924L203.963 68.5117H204.939C205.018 68.5117 205.083 68.5182 205.135 68.5312C205.33 68.5573 205.428 68.7135 205.428 69H202.635ZM197.635 64.8203C197.635 65.4323 197.7 65.9792 197.83 66.4609C198.156 67.763 198.852 68.4141 199.92 68.4141C200.454 68.4141 200.929 68.2253 201.346 67.8477C202.127 67.1445 202.518 66.0117 202.518 64.4492C202.518 63.707 202.407 63.0625 202.186 62.5156C201.782 61.5 201.105 60.9922 200.154 60.9922C199.777 60.9922 199.432 61.0768 199.119 61.2461C198.13 61.793 197.635 62.9844 197.635 64.8203ZM210.76 60.9922C210.421 60.9922 210.102 61.0703 209.803 61.2266C208.891 61.6823 208.403 62.6589 208.338 64.1562L210.408 64.2148C211.007 64.2279 211.469 64.2018 211.795 64.1367C212.42 63.9935 212.732 63.5964 212.732 62.9453C212.732 62.6589 212.68 62.3919 212.576 62.1445C212.277 61.3763 211.671 60.9922 210.76 60.9922ZM214.158 67.125C214.08 67.3073 213.989 67.4896 213.885 67.6719C213.221 68.6875 212.186 69.1953 210.779 69.1953C209.894 69.1953 209.106 68.9674 208.416 68.5117C207.257 67.7305 206.678 66.5326 206.678 64.918C206.678 64.0326 206.86 63.2383 207.225 62.5352C207.928 61.181 209.093 60.5039 210.721 60.5039C211.554 60.5039 212.29 60.6927 212.928 61.0703C213.826 61.5911 214.275 62.2943 214.275 63.1797C214.275 63.6615 214.1 64.0326 213.748 64.293C213.292 64.6185 212.27 64.7682 210.682 64.7422L208.338 64.7031C208.351 65.25 208.41 65.7513 208.514 66.207C208.865 67.8346 209.725 68.6484 211.092 68.6484C211.209 68.6484 211.333 68.6419 211.463 68.6289C212.479 68.4987 213.214 67.9388 213.67 66.9492L214.158 67.125ZM217.947 62.457C217.947 62.5872 217.921 62.7174 217.869 62.8477C217.7 63.2253 217.407 63.4141 216.99 63.4141C216.86 63.4141 216.73 63.388 216.6 63.3359C216.222 63.1667 216.033 62.8737 216.033 62.457C216.033 62.3268 216.059 62.1966 216.111 62.0664C216.281 61.6888 216.574 61.5 216.99 61.5C217.12 61.5 217.251 61.526 217.381 61.5781C217.758 61.7474 217.947 62.0404 217.947 62.457ZM217.947 67.0273C217.947 67.1576 217.921 67.2878 217.869 67.418C217.7 67.7956 217.407 67.9844 216.99 67.9844C216.86 67.9844 216.73 67.9583 216.6 67.9062C216.222 67.737 216.033 67.444 216.033 67.0273C216.033 66.8971 216.059 66.7669 216.111 66.6367C216.281 66.2591 216.574 66.0703 216.99 66.0703C217.12 66.0703 217.251 66.0964 217.381 66.1484C217.758 66.3177 217.947 66.6107 217.947 67.0273Z" fill="#231F20"/>
<path d="M121.043 243.633H125.457C125.73 243.633 125.945 243.62 126.102 243.594C126.466 243.503 126.72 243.229 126.863 242.773L127.176 241.719H127.547L127.508 245H120.066V244.609C120.066 244.232 120.138 243.867 120.281 243.516C120.542 242.891 121.167 242.246 122.156 241.582C123.211 240.866 123.797 240.462 123.914 240.371C125.021 239.486 125.574 238.438 125.574 237.227C125.574 236.992 125.555 236.771 125.516 236.562C125.294 235.495 124.604 234.961 123.445 234.961C123.016 234.961 122.684 235.059 122.449 235.254C122.189 235.475 122.02 235.938 121.941 236.641C121.915 236.901 121.889 237.096 121.863 237.227C121.746 237.747 121.434 238.008 120.926 238.008C120.848 238.008 120.763 237.995 120.672 237.969C120.281 237.839 120.086 237.507 120.086 236.973C120.086 236.374 120.32 235.853 120.789 235.41C121.479 234.772 122.423 234.453 123.621 234.453C124.285 234.453 124.884 234.551 125.418 234.746C126.629 235.202 127.234 236.035 127.234 237.246C127.234 238.014 126.902 238.757 126.238 239.473C125.704 240.059 124.708 240.788 123.25 241.66C122.885 241.895 122.618 242.064 122.449 242.168C121.512 242.767 121.043 243.255 121.043 243.633ZM133.602 245.195C132.82 245.195 132.13 245.059 131.531 244.785C130.372 244.238 129.793 243.353 129.793 242.129C129.793 241.842 129.839 241.556 129.93 241.27C130.268 240.137 131.128 239.382 132.508 239.004C132.352 238.913 132.195 238.822 132.039 238.73C130.815 237.975 130.203 237.109 130.203 236.133C130.203 235.43 130.411 234.824 130.828 234.316C131.505 233.496 132.514 233.086 133.855 233.086C134.48 233.086 135.06 233.21 135.594 233.457C136.661 233.952 137.195 234.772 137.195 235.918C137.195 236.061 137.182 236.204 137.156 236.348C137 237.441 136.362 238.268 135.242 238.828C135.607 239.036 135.919 239.225 136.18 239.395C137.299 240.137 137.859 241.003 137.859 241.992C137.859 242.773 137.547 243.457 136.922 244.043C136.089 244.811 134.982 245.195 133.602 245.195ZM131.727 235.43C131.727 235.977 131.928 236.484 132.332 236.953C132.71 237.383 133.497 237.91 134.695 238.535C134.943 238.431 135.177 238.294 135.398 238.125C136.154 237.565 136.531 236.836 136.531 235.938C136.531 235.417 136.375 234.954 136.062 234.551C135.568 233.939 134.884 233.633 134.012 233.633C133.673 233.633 133.361 233.672 133.074 233.75C132.176 234.01 131.727 234.57 131.727 235.43ZM130.457 242.09C130.457 242.676 130.633 243.184 130.984 243.613C131.557 244.303 132.384 244.648 133.465 244.648C133.908 244.648 134.318 244.596 134.695 244.492C135.789 244.167 136.336 243.49 136.336 242.461C136.336 241.849 136.069 241.302 135.535 240.82C135.158 240.469 134.363 239.98 133.152 239.355C132.566 239.473 132.052 239.688 131.609 240C130.841 240.547 130.457 241.243 130.457 242.09ZM149.383 233.789H147.82V241.641C147.82 242.591 147.618 243.385 147.215 244.023C146.642 244.909 145.796 245.352 144.676 245.352C144.233 245.352 143.829 245.286 143.465 245.156C142.788 244.909 142.449 244.525 142.449 244.004C142.449 243.913 142.469 243.815 142.508 243.711C142.638 243.333 142.905 243.145 143.309 243.145C143.621 243.145 143.855 243.249 144.012 243.457C144.064 243.535 144.161 243.802 144.305 244.258C144.422 244.661 144.656 244.863 145.008 244.863C145.203 244.863 145.379 244.811 145.535 244.707C145.939 244.395 146.141 243.438 146.141 241.836V233.789H144.383V233.281H149.383V233.789ZM160.125 244.512C160.203 244.512 160.268 244.518 160.32 244.531C160.516 244.557 160.613 244.714 160.613 245H157.859L157.723 243.008C157.579 243.372 157.391 243.704 157.156 244.004C156.531 244.798 155.73 245.195 154.754 245.195C152.905 245.182 151.974 244.062 151.961 241.836V237.188H150.457V236.699H153.426V242.129C153.426 242.337 153.439 242.533 153.465 242.715C153.634 243.809 154.253 244.355 155.32 244.355C155.711 244.355 156.089 244.232 156.453 243.984C157.273 243.438 157.684 242.578 157.684 241.406V237.188H156.082V236.699H159.148V244.512H160.125ZM165.535 244.512C165.613 244.512 165.678 244.518 165.73 244.531C165.926 244.557 166.023 244.714 166.023 245H161.727V244.512C162.169 244.512 162.488 244.479 162.684 244.414C163.022 244.297 163.191 243.939 163.191 243.34V237.188H161.727V236.699H164.559L164.637 238.652C164.78 238.288 164.969 237.956 165.203 237.656C165.828 236.888 166.622 236.504 167.586 236.504C168.068 236.504 168.517 236.628 168.934 236.875C169.832 237.435 170.281 238.366 170.281 239.668V244.512H171.258C171.336 244.512 171.401 244.518 171.453 244.531C171.648 244.557 171.746 244.714 171.746 245H167.352V244.512C167.794 244.512 168.113 244.479 168.309 244.414C168.647 244.297 168.816 243.939 168.816 243.34V239.473C168.816 239.095 168.758 238.757 168.641 238.457C168.354 237.715 167.814 237.344 167.02 237.344C166.655 237.344 166.297 237.454 165.945 237.676C165.125 238.21 164.695 239.082 164.656 240.293V244.512H165.535ZM176.824 244.512C176.889 244.512 176.954 244.518 177.02 244.531C177.215 244.557 177.312 244.714 177.312 245H172.82V244.512C173.263 244.512 173.582 244.486 173.777 244.434C174.181 244.303 174.383 243.939 174.383 243.34V237.188H172.82V236.699H175.848V244.512H176.824ZM176.082 233.848C176.082 234.004 176.049 234.154 175.984 234.297C175.802 234.714 175.483 234.922 175.027 234.922C174.884 234.922 174.741 234.896 174.598 234.844C174.168 234.661 173.953 234.329 173.953 233.848C173.953 233.691 173.986 233.542 174.051 233.398C174.246 232.982 174.572 232.773 175.027 232.773C175.171 232.773 175.32 232.806 175.477 232.871C175.88 233.066 176.082 233.392 176.082 233.848ZM180.34 240.84C180.34 241.4 180.385 241.908 180.477 242.363C180.815 243.926 181.642 244.707 182.957 244.707C183.204 244.707 183.445 244.674 183.68 244.609C184.878 244.232 185.477 242.949 185.477 240.762C185.477 240.384 185.457 240.039 185.418 239.727C185.184 237.904 184.344 236.992 182.898 236.992C182.586 236.992 182.286 237.044 182 237.148C180.893 237.591 180.34 238.822 180.34 240.84ZM182.957 236.504C183.816 236.504 184.604 236.732 185.32 237.188C186.531 237.982 187.137 239.199 187.137 240.84C187.137 242.051 186.759 243.06 186.004 243.867C185.184 244.753 184.148 245.195 182.898 245.195C182.013 245.195 181.206 244.948 180.477 244.453C179.279 243.633 178.68 242.402 178.68 240.762C178.68 239.577 179.064 238.587 179.832 237.793C180.665 236.934 181.707 236.504 182.957 236.504ZM193.289 243.633H197.703C197.977 243.633 198.191 243.62 198.348 243.594C198.712 243.503 198.966 243.229 199.109 242.773L199.422 241.719H199.793L199.754 245H192.312V244.609C192.312 244.232 192.384 243.867 192.527 243.516C192.788 242.891 193.413 242.246 194.402 241.582C195.457 240.866 196.043 240.462 196.16 240.371C197.267 239.486 197.82 238.438 197.82 237.227C197.82 236.992 197.801 236.771 197.762 236.562C197.54 235.495 196.85 234.961 195.691 234.961C195.262 234.961 194.93 235.059 194.695 235.254C194.435 235.475 194.266 235.938 194.188 236.641C194.161 236.901 194.135 237.096 194.109 237.227C193.992 237.747 193.68 238.008 193.172 238.008C193.094 238.008 193.009 237.995 192.918 237.969C192.527 237.839 192.332 237.507 192.332 236.973C192.332 236.374 192.566 235.853 193.035 235.41C193.725 234.772 194.669 234.453 195.867 234.453C196.531 234.453 197.13 234.551 197.664 234.746C198.875 235.202 199.48 236.035 199.48 237.246C199.48 238.014 199.148 238.757 198.484 239.473C197.951 240.059 196.954 240.788 195.496 241.66C195.132 241.895 194.865 242.064 194.695 242.168C193.758 242.767 193.289 243.255 193.289 243.633ZM206.043 234.453C206.837 234.453 207.547 234.648 208.172 235.039C209.539 235.898 210.223 237.487 210.223 239.805C210.223 241.263 209.897 242.474 209.246 243.438C208.452 244.609 207.358 245.195 205.965 245.195C205.092 245.195 204.318 244.948 203.641 244.453C202.378 243.516 201.746 241.947 201.746 239.746C201.746 238.301 202.078 237.103 202.742 236.152C203.549 235.02 204.65 234.453 206.043 234.453ZM206.023 244.688C206.232 244.688 206.427 244.661 206.609 244.609C207.859 244.284 208.484 242.663 208.484 239.746C208.484 238.34 208.354 237.259 208.094 236.504C207.729 235.475 207.033 234.961 206.004 234.961C205.691 234.961 205.405 235.013 205.145 235.117C204.025 235.547 203.465 237.109 203.465 239.805C203.465 240.911 203.556 241.829 203.738 242.559C204.09 243.978 204.852 244.688 206.023 244.688ZM212.645 243.633H217.059C217.332 243.633 217.547 243.62 217.703 243.594C218.068 243.503 218.322 243.229 218.465 242.773L218.777 241.719H219.148L219.109 245H211.668V244.609C211.668 244.232 211.74 243.867 211.883 243.516C212.143 242.891 212.768 242.246 213.758 241.582C214.812 240.866 215.398 240.462 215.516 240.371C216.622 239.486 217.176 238.438 217.176 237.227C217.176 236.992 217.156 236.771 217.117 236.562C216.896 235.495 216.206 234.961 215.047 234.961C214.617 234.961 214.285 235.059 214.051 235.254C213.79 235.475 213.621 235.938 213.543 236.641C213.517 236.901 213.491 237.096 213.465 237.227C213.348 237.747 213.035 238.008 212.527 238.008C212.449 238.008 212.365 237.995 212.273 237.969C211.883 237.839 211.688 237.507 211.688 236.973C211.688 236.374 211.922 235.853 212.391 235.41C213.081 234.772 214.025 234.453 215.223 234.453C215.887 234.453 216.486 234.551 217.02 234.746C218.23 235.202 218.836 236.035 218.836 237.246C218.836 238.014 218.504 238.757 217.84 239.473C217.306 240.059 216.31 240.788 214.852 241.66C214.487 241.895 214.22 242.064 214.051 242.168C213.113 242.767 212.645 243.255 212.645 243.633ZM228.836 242.754C228.836 243.522 228.628 244.219 228.211 244.844C227.43 245.99 226.212 246.562 224.559 246.562C223.66 246.562 222.885 246.361 222.234 245.957C221.479 245.462 221.102 244.85 221.102 244.121C221.167 243.587 221.473 243.268 222.02 243.164C222.267 243.164 222.469 243.216 222.625 243.32C222.846 243.49 222.99 243.887 223.055 244.512C223.081 244.798 223.113 245.007 223.152 245.137C223.296 245.762 223.719 246.074 224.422 246.074C224.93 246.074 225.379 245.977 225.77 245.781C226.733 245.286 227.215 244.316 227.215 242.871C227.215 242.441 227.163 242.044 227.059 241.68C226.707 240.443 225.9 239.824 224.637 239.824C223.855 239.824 223.159 240.072 222.547 240.566L221.902 240.078V234.668C224.155 234.759 225.333 234.805 225.438 234.805C226.141 234.805 226.648 234.759 226.961 234.668C227.352 234.564 227.599 234.297 227.703 233.867H228.172C228.172 234.818 228.022 235.443 227.723 235.742C227.371 236.094 226.525 236.27 225.184 236.27C224.467 236.27 223.589 236.217 222.547 236.113V239.883C223.263 239.401 224.109 239.154 225.086 239.141C226.062 239.141 226.889 239.414 227.566 239.961C228.413 240.651 228.836 241.582 228.836 242.754Z" fill="#231F20"/>
</svg>
